<?xml version="1.0" encoding="UTF-8" standalone="no"?>
<svg
   version="1.0"
   width="722.36041pt"
   height="1359.5321pt"
   viewBox="0 0 722.36041 1359.5321"
   preserveAspectRatio="xMidYMid"
   id="svg141"
   sodipodi:docname="Gemini_Generated_Image_xdts1jxdts1jxdts_1_.svg"
   xmlns:inkscape="http://www.inkscape.org/namespaces/inkscape"
   xmlns:sodipodi="http://sodipodi.sourceforge.net/DTD/sodipodi-0.dtd"
   xmlns="http://www.w3.org/2000/svg"
   xmlns:svg="http://www.w3.org/2000/svg">
  <defs
     id="defs141" />
  <sodipodi:namedview
     id="namedview141"
     pagecolor="#ffffff"
     bordercolor="#000000"
     borderopacity="0.25"
     inkscape:showpageshadow="2"
     inkscape:pageopacity="0.0"
     inkscape:pagecheckerboard="0"
     inkscape:deskcolor="#d1d1d1"
     inkscape:document-units="pt" />
  <path
     d="m 351.69996,0.64611053 c -24.2,4.39999997 -41.7,18.60000047 -49.4,40.20000047 -2.4,6.8 -2.6,8.5 -2.7,24.5 0,13.9 -0.2,17 -1.3,16.1 -2.2,-1.8 -6,0 -7.7,3.6 -2,4.2 -2,8 -0.1,17.099999 3.2,15.2 9.1,25.5 14.7,25.5 2.1,0 2.6,0.7 3.6,4.7 0.6,2.7 1.5,7.2 1.8,10 0.4,2.9 0.9,5.3 1.3,5.3 0.3,0 1.9,-3.2 3.4,-7 3.4,-8.3 9,-15.8 14.4,-19.1 3.7,-2.4 4.2,-2.4 31.8,-2.5 15.4,-0.1 29.6,0.2 31.5,0.7 8.1,2 16,10.6 20.2,22.1 1.1,3.2 2.4,5.8 2.8,5.8 0.5,0 1.3,-2.8 1.9,-6.3 2,-11.3 3,-13.7 5.5,-13.7 6.7,0 15.5,-19.9 15.8,-35.899999 0.1,-5.9 -0.1,-6.7 -2.7,-8.8 -1.5,-1.3 -3.4,-2.2 -4.1,-1.9 -0.8,0.3 -2,0.8 -2.6,1.1 -1,0.4 -1.2,-3.2 -1,-16.5 0.4,-20.8 -0.9,-26.6 -9.1,-38.7 -8.1,-12.1 -19.3,-20.0000005 -34.6,-24.5000005 -7.5,-2.19999997 -25.9,-3.19999997 -33.4,-1.79999997 z"
     id="path2"
     style="fill:#000000;stroke:none;stroke-width:0.1"
     inkscape:export-filename="..\Desktop\path2.svg"
     inkscape:export-xdpi="96"
     inkscape:export-ydpi="96"
     inkscape:label="head" />
  <g
     id="g141"
     transform="translate(-1632,-88.353889)">
    <path
       d="m 1972.2,216 c -2.1,2 -2.5,3.1 -5.7,17 -3.3,14.6 -13,32.1 -22.4,40.8 -7.8,7.2 -15.5,12 -39.6,24.7 -6,3.2 -12.3,6.6 -14,7.5 -1.6,1 -5,2.9 -7.5,4.2 -8.7,4.8 -12,7 -12,7.9 0,1.7 10.8,8.9 21,14 23.4,11.6 32.6,20.3 35.1,33.3 0.5,2.8 1.4,15.2 1.9,27.6 0.9,23.2 1.8,29.3 6.6,43.6 8.4,25.2 27,60.2 47.6,89.4 l 5.3,7.5 0.8,-11.5 c 0.4,-6.3 0.6,-40.8 0.4,-76.5 l -0.5,-65 -2.6,-12.5 c -2.3,-11.2 -3.5,-14.2 -10.9,-28.9 l -8.2,-16.4 0.1,-8.1 c 0.1,-7.4 0.5,-8.9 4.7,-18.1 5.7,-12.4 7.4,-16.9 9.7,-26.5 3.1,-12.8 4.3,-23.7 3.8,-34.9 -0.6,-11.5 -2.2,-16.9 -5.9,-19.5 -3.1,-2.1 -5.1,-2 -7.7,0.4 z"
       id="path3"
       style="fill:#000000;stroke:none;stroke-width:0.1" />
    <path
       d="m 2013,215.3 c -3.3,1.6 -4.9,5.3 -6.2,13.5 -1.1,7.9 -0.3,26.8 1.7,36.1 1.7,8.2 6.9,23.5 9,26.8 4,6 6.8,15.7 6.8,23.3 0,8.1 -1.1,11 -10.3,28 -10.9,20.3 -11.9,31 -12,121.5 0,36.8 0.4,67.6 0.8,68.2 1.4,2.2 23.3,-32.5 35.5,-56 17.9,-34.5 24.6,-57.5 24.7,-85.2 0,-14.9 2.5,-30.8 5.6,-35.8 5.3,-8.3 12.5,-14 27.4,-21.6 15.6,-7.9 25,-14 25,-16.2 0,-0.6 -3.2,-2.7 -11.2,-7.4 -1,-0.5 -5.5,-3 -10,-5.4 -4.6,-2.4 -13,-6.9 -18.8,-9.9 -22.4,-11.9 -34.7,-21.2 -42,-31.7 -6.3,-9.2 -13.3,-26.4 -16,-39.3 -0.9,-4.5 -2,-6.8 -3.8,-8.2 -2.9,-2.3 -3,-2.3 -6.2,-0.7 z"
       id="path4"
       style="fill:#000000;stroke:none;stroke-width:0.1" />
  </g>
  <path
     d="m 329.19996,129.44611 c -3.7,0.6 -8.7,6.3 -11.2,12.7 -2.1,5.8 -3.9,19.3 -4,31.4 v 5.4 l 3.5,-4.4 c 8.1,-10.1 15.5,-29.7 15.5,-40.8 0,-4.4 -0.4,-4.9 -3.8,-4.3 z"
     id="path5"
     style="fill:#000000;stroke:none;stroke-width:0.1" />
  <path
     d="m 394.99996,134.24611 c 0,11.5 8,31.8 16.1,40.7 l 3.8,4.2 -0.4,-3 c -0.2,-1.7 -0.7,-7.7 -1,-13.5 -1.1,-20.1 -6.3,-31.3 -15.7,-33.6 l -2.8,-0.6 z"
     id="path6"
     style="fill:#000000;stroke:none;stroke-width:0.1" />
  <g
     id="g142"
     inkscape:label="Deltoids"
     transform="translate(-1632,-88.353889)">
    <path
       d="m 1844,323.1 c -25.2,5.8 -46.4,23.6 -57.3,48.4 -8.8,19.8 -11.5,43.1 -7.5,63.8 l 1.1,5.7 5.1,-4.7 c 10.3,-9.6 12.5,-11 29,-19.7 12.6,-6.6 19.9,-11.2 27.6,-17.2 5.8,-4.6 7.8,-6.3 20.6,-18.1 4.5,-4.1 9.9,-9 12,-10.9 2.2,-2 7.6,-6.3 12.2,-9.6 4.5,-3.3 8.2,-6.4 8.2,-6.8 0,-0.7 -1.4,-1.8 -14.7,-11.5 -7,-5.2 -9.6,-7.6 -16.9,-15.8 -5.9,-6.6 -6.2,-6.6 -19.4,-3.6 z"
       id="path14"
       style="fill:#000000;stroke:none;stroke-width:0.1" />
    <path
       d="m 2126.4,329.1 c -4.8,5.7 -10.5,10.7 -18.6,16.6 -6.5,4.6 -11.8,8.6 -11.8,8.8 0,0.2 2.1,1.7 4.8,3.3 6.3,3.9 11.7,8.5 23.7,20.1 5.6,5.3 11.9,11 14,12.6 2.2,1.7 5.8,4.7 8,6.7 l 4,3.8 h -5.7 c -4.8,0 -6,0.4 -7.3,2.2 -0.8,1.3 -5.5,8.3 -10.4,15.7 -9.9,14.9 -21.9,29 -31,36.6 -3.3,2.7 -6,5.3 -6,5.7 -0.1,1.2 10.8,2.1 17.2,1.4 8.7,-1 21.4,-4.4 26.6,-7.3 6.9,-3.8 8.9,-5.5 10.5,-9.3 1.2,-3 3.1,-20.9 3.9,-37 0.2,-4.3 0.3,-4.5 3.5,-4.8 2.5,-0.3 4.9,0.6 9.5,3.6 3.4,2.2 11.6,6.7 18.2,10.2 11.8,6.1 17.7,10.3 26.6,18.8 3.3,3.1 4.9,4 5.4,3.2 0.4,-0.7 1.3,-6.6 1.8,-13.1 3.5,-39.1 -11.2,-74.3 -38.8,-92.8 -8.8,-5.9 -30.1,-13.1 -38.8,-13.1 -1.7,0 -4.3,2.2 -9.3,8.1 z"
       id="path15"
       style="fill:#000000;stroke:none;stroke-width:0.1" />
  </g>
  <path
     d="m 259.39996,274.24611 c -6,3.6 -13.2,9.4 -22.3,17.9 -11.2,10.4 -13.1,12.5 -13.1,13.9 0,3.1 9.8,20.5 17.9,31.9 8.5,12 17.4,21.5 27.2,28.9 9,6.8 10.3,7.1 20.1,4.4 9.8,-2.7 13.8,-5 13.8,-7.9 0,-1.2 -1.8,-7.3 -3.9,-13.7 -2.2,-6.3 -5.5,-16.5 -7.4,-22.6 -6.7,-21.1 -21.7,-54.4 -25.3,-55.8 -0.7,-0.3 -3.8,1.1 -7,3 z"
     id="path22"
     style="fill:#000000;stroke:none;stroke-width:0.1" />
  <path
     d="m 457.39996,276.34611 c -5.7,8.9 -15.2,32.5 -24.3,60.4 -2.7,8.5 -6,18.1 -7.2,21.3 l -2.2,6 3.3,2.7 c 3.6,3.1 17.9,7.4 21.4,6.5 6.4,-1.6 21.3,-14.6 31.4,-27.4 13,-16.5 23.2,-33.6 23.2,-39 0,-1.2 -1.3,-3.5 -2.8,-5 -10.7,-10.3 -19.4,-18.2 -23.1,-21.2 -5.3,-4.4 -13.1,-9 -15.1,-9 -0.8,0 -2.9,2.1 -4.6,4.7 z"
     id="path23"
     style="fill:#000000;stroke:none;stroke-width:0.1" />
  <path
     d="m 213.99996,313.54611 c -3.3,0.9 -3.6,4.1 -2,23.6 1.4,17.2 2.3,21.8 5.1,24.3 3.4,3.2 16.1,9.1 23.4,10.8 7,1.6 26.8,2.4 28.2,1 0.4,-0.3 -4.3,-5.7 -10.4,-11.9 -13.7,-13.8 -14.7,-15 -26.1,-31.4 -8.3,-11.8 -13.3,-17.5 -15.1,-17.2 -0.3,0.1 -1.7,0.4 -3.1,0.8 z"
     id="path24"
     style="fill:#000000;stroke:none;stroke-width:0.1" />
  <g
     id="g143"
     inkscape:label="lats"
     transform="translate(-1632,-88.353889)">
    <path
       d="m 1848,459.4 c 0,14.5 4.9,36.3 12.5,56.1 1.5,3.8 3.6,9.2 4.7,12 2.9,7.6 7.3,20.8 10.8,32.5 3,9.9 7.7,20.8 12,27.5 1.1,1.6 3,4.7 4.2,6.9 1.3,2.1 2.8,4.6 3.3,5.5 11,18 18.8,34.4 20.6,43.1 1.7,8.8 2.9,13 3.7,13 0.9,0 10,-14.5 13.5,-21.5 1.4,-2.8 4.2,-9.1 6.2,-14 5.8,-14.3 11.8,-24.5 22.3,-37.7 5.4,-6.8 11.7,-15.2 14,-18.6 9.8,-15 8.6,-20.8 -11.8,-57.2 -4.8,-8.5 -11.8,-21.6 -15.6,-29 -3.7,-7.4 -7.6,-14.7 -8.6,-16.2 -1.8,-2.7 -1.9,-2.7 -6.6,-1.2 -14.9,4.6 -22.6,5.7 -39.2,5.8 -18.9,0.1 -27.3,-1.7 -38.7,-7.9 -3.5,-1.9 -6.6,-3.5 -6.8,-3.5 -0.3,0 -0.5,2 -0.5,4.4 z"
       id="path37"
       style="fill:#000000;stroke:none;stroke-width:0.1" />
    <path
       d="m 2136.2,458.5 c -2.9,1.8 -9.2,4.3 -14,5.6 -7.6,2.1 -10.8,2.4 -25.2,2.3 -16.6,0 -28,-1.7 -39.5,-5.8 -2.2,-0.8 -4.3,-1.1 -4.7,-0.8 -0.3,0.4 -4,7.2 -8,15.2 -7.1,13.9 -12.2,23.4 -13.8,25.5 -0.8,1 -3.1,5.3 -11.9,21.7 -5.6,10.5 -10.1,22.5 -10.1,26.9 0,5.5 7,17.2 20,33.4 9.2,11.6 15.4,22.1 21.4,36.6 4.9,12.1 14.1,29.3 18.2,34.2 l 2.4,2.8 1,-2.3 c 0.5,-1.3 1.6,-5.5 2.4,-9.3 2.3,-11.3 5.2,-17.6 16.9,-36.8 16.6,-27.3 19.5,-32.6 21.2,-38.3 2.1,-7.3 12.9,-38.8 15.5,-45.4 6.6,-16.6 11.1,-31.1 13,-41.9 2,-11.7 2.7,-27.2 1.3,-27 -0.5,0 -3.2,1.5 -6.1,3.4 z"
       id="path38"
       style="fill:#000000;stroke:none;stroke-width:0.1" />
  </g>
  <g
     id="g144"
     inkscape:label="triceps"
     transform="translate(-1632,-88.353889)">
    <path
       d="m 1823,416.2 c -19.2,9.6 -22.7,13.9 -28.3,35.3 -1.5,5.8 -2.1,11.2 -2.1,19.5 -0.1,13.2 0.6,17 3.3,17 2.4,0 8.4,-4.1 12.8,-8.7 11.2,-11.9 26,-42 28.8,-58.6 0.6,-3.8 -0.2,-10.7 -1.4,-10.7 -0.3,0 -6.2,2.8 -13.1,6.2 z"
       id="path25"
       style="fill:#000000;stroke:none;stroke-width:0.1" />
    <path
       d="m 2154.6,412.6 c -1.5,3.9 -0.1,14.1 3.4,24.5 6.7,20.1 28.6,50.9 36.1,50.9 2.4,0 3,-0.5 3.8,-3.8 2.5,-8.8 0.3,-26.9 -5.4,-43.7 -2.5,-7.5 -5.9,-13.3 -9.5,-16.3 -2.1,-1.8 -25,-13.2 -26.5,-13.2 -0.7,0 -1.6,0.7 -1.9,1.6 z"
       id="path26"
       style="fill:#000000;stroke:none;stroke-width:0.1" />
    <path
       d="m 1839.7,428 c -8.6,24.2 -17.2,39.8 -31.5,56.9 -4.2,4.9 -5.2,6.8 -4.7,8.5 0.4,1.1 0.9,6.1 1.2,11.1 0.5,9.9 -0.2,13.4 -6.1,32.8 -2,6.5 -3.6,12.7 -3.6,13.7 0,1.9 0.1,1.9 3.8,0.3 8.6,-4 21.2,-12.6 29,-19.8 7.2,-6.7 8.9,-8.9 12.6,-16.9 2.4,-5 5.1,-12.1 6.1,-15.9 1.6,-5.9 1.7,-7.7 0.6,-15 -3.4,-22.8 -5.1,-37 -5.1,-44.7 -0.1,-8.6 -1.3,-14 -2.3,-11 z"
       id="path29"
       style="fill:#000000;stroke:none;stroke-width:0.1" />
    <path
       d="m 2150,429.9 c 0,7.3 -2.3,30.2 -4.5,45.5 -2.4,16.2 -2.5,17.2 -0.9,23.5 0.8,3.6 3.5,10.7 6,15.6 4.7,9.8 10.2,16.2 20.4,23.9 7.5,5.6 23.9,15 24.7,14.2 0.4,-0.4 -1.1,-6.8 -3.2,-14.4 -6,-21.5 -6.7,-25.8 -6.2,-35.2 0.3,-4.7 0.8,-9.2 1.2,-10.1 0.4,-1 -1.8,-4.4 -6.3,-10 -11.5,-14.1 -21.9,-32.3 -28.2,-49.7 -1.2,-3.4 -2.4,-6.2 -2.6,-6.2 -0.2,0 -0.4,1.3 -0.4,2.9 z"
       id="path30"
       style="fill:#000000;stroke:none;stroke-width:0.1" />
    <path
       d="m 2194,434.5 c 0,0.9 0.7,3.1 1.4,5 0.8,1.9 2.7,8.3 4.1,14.2 2.3,9.4 2.6,12.5 2.4,24.3 -0.3,13.3 -0.3,13.5 2.5,17.5 10.9,15.6 15.5,36.1 15.6,68.5 v 7.5 l 2.5,-3 c 3.4,-4.2 8,-13.9 9.6,-20.5 1.9,-7.5 1.6,-34 -0.4,-44.5 -3.7,-18.8 -10.6,-38.5 -17.3,-49.2 -7.6,-12.3 -20.4,-24.6 -20.4,-19.8 z"
       id="path31"
       style="fill:#000000;stroke:none;stroke-width:0.1" />
    <path
       d="m 1788.8,439.2 c -10.9,10.6 -17.8,22.4 -23.2,39.8 -9.1,29.6 -11.4,56.6 -6.2,73.1 1.7,5.6 5.7,13.5 8.4,16.9 l 2,2.5 0.6,-4.5 c 0.3,-2.5 0.7,-11.7 1,-20.5 0.6,-21.9 4,-33.3 14.8,-50.2 l 4,-6.3 -1.1,-6.3 c -0.6,-3.5 -1.1,-8.4 -1.1,-11 0,-6.2 3.2,-22.5 6.3,-31.5 3,-8.8 2,-9.2 -5.5,-2 z"
       id="path32"
       style="fill:#000000;stroke:none;stroke-width:0.1" />
    <path
       d="m 2149,520.8 c 0,2 7.7,22.5 11,29.1 5.2,10.5 12.8,21.8 17.9,26.3 5.4,4.9 13.2,9.1 15.8,8.6 2.1,-0.4 3.2,-5.4 3.2,-15.6 0.1,-9.9 -1.2,-11.9 -11.8,-17.7 -15.2,-8.4 -20.7,-12.8 -28.9,-23 -7.5,-9.4 -7.2,-9.1 -7.2,-7.7 z"
       id="path47"
       style="fill:#000000;stroke:none;stroke-width:0.1" />
    <path
       d="m 1831.8,531.4 c -9.7,10 -15.6,14.5 -27.3,20.6 -8,4.2 -9.2,5.4 -10.3,10.4 -1,5 0.8,21.8 2.5,22.3 1.9,0.7 8.1,-2.4 14.4,-7.3 8.6,-6.6 19.1,-23.5 25.3,-40.4 1.5,-4.1 3.5,-9.2 4.3,-11.3 0.9,-2 1.4,-3.9 1.2,-4.1 -0.2,-0.1 -4.8,4.2 -10.1,9.8 z"
       id="path48"
       style="fill:#000000;stroke:none;stroke-width:0.1" />
  </g>
  <path
     d="m 248.99996,496.24611 c 0,11.3 -1.3,27.6 -3.1,37.4 -1.9,10.2 -2.3,15.9 -2.2,30.8 0,10.1 0.4,18.6 0.7,19 0.4,0.3 1.7,0 2.9,-0.8 8.8,-5.5 14.1,-7.2 30.2,-9.7 l 5,-0.8 -0.3,-4.5 c -1.2,-15.9 -6.1,-27.8 -22.8,-55.5 -10.2,-17.1 -10.4,-17.3 -10.4,-15.9 z"
     id="path73"
     style="fill:#000000;stroke:none;stroke-width:0.1" />
  <path
     d="m 467.49996,512.34611 c -13.6,22.8 -17,29.1 -19.4,36.5 -2.2,6.6 -4.5,21.4 -3.6,22.8 0.3,0.5 2.7,1.2 5.3,1.5 12.4,1.6 18.7,3.6 27.6,8.8 2.7,1.5 5,2.6 5.2,2.4 0.2,-0.2 0.6,-7.3 1,-15.8 0.6,-15.3 0.4,-17.9 -3.2,-39.9 -1,-5.8 -1.8,-15.6 -1.8,-21.8 -0.1,-6.1 -0.3,-11.2 -0.6,-11.2 -0.3,0 -5,7.5 -10.5,16.7 z"
     id="path74"
     style="fill:#000000;stroke:none;stroke-width:0.1" />
  <g
     id="g146"
     inkscape:label="forearm"
     transform="translate(-1632,-88.353889)">
    <path
       d="m 1749.8,545.7 c -3.9,4.3 -12.3,17.3 -17.8,27.5 -8.1,15.3 -15.2,41 -17.5,63.3 -0.7,6.7 0.4,6.6 2.8,-0.5 1.8,-5.3 11,-27.7 13.6,-33.5 1.1,-2.2 5.5,-11.4 9.9,-20.5 5.5,-11.3 8.5,-18.9 9.5,-24 1.7,-7.9 2.7,-15 2.3,-15 -0.1,0 -1.4,1.2 -2.8,2.7 z"
       id="path55"
       style="fill:#000000;stroke:none;stroke-width:0.1" />
    <path
       d="m 2238.5,549.7 c 1.2,11.3 3,16.4 13.3,37.5 5.4,11.2 12.8,27.8 16.3,37 6.3,16.5 6.4,16.6 6.7,11.8 0.6,-10 -8.9,-48.7 -14.6,-59.5 -6.3,-11.8 -20.4,-33.5 -21.8,-33.5 -0.4,0 -0.3,3 0.1,6.7 z"
       id="path56"
       style="fill:#000000;stroke:none;stroke-width:0.1" />
    <path
       d="m 1753,571.9 c 0,3.3 0.7,15.6 1.6,27.3 1,12.8 1.4,27.8 1.2,37.5 -0.3,9 -0.2,16.3 0.1,16.3 1,0 15.6,-29 17.5,-34.4 2.1,-6.4 2.1,-17.3 -0.1,-22.8 -1.8,-4.9 -6.8,-12.5 -14.8,-22.9 l -5.5,-7.1 z"
       id="path59"
       style="fill:#000000;stroke:none;stroke-width:0.1" />
    <path
       d="m 2230.5,575.2 c -13.6,18 -14.9,21.1 -14.9,34.8 v 8.5 l 8.9,17.2 c 4.9,9.5 9.2,17.3 9.6,17.3 0.3,0 0.9,-12.7 1.2,-28.3 0.4,-15.5 1.1,-33.4 1.6,-39.7 0.6,-6.3 0.7,-12.9 0.3,-14.6 l -0.7,-3.1 z"
       id="path60"
       style="fill:#000000;stroke:none;stroke-width:0.1" />
    <path
       d="m 1744.8,581 c -7.8,12.2 -16.3,36.2 -18.8,53 -1,6.3 -4.2,29.3 -6.6,46 -2,14.5 -4.8,29.7 -7,37.5 -2.9,10.2 -2.7,10.7 3.6,12.8 3,0.9 6.3,1.6 7.4,1.5 1.4,-0.2 3.7,-5 9.7,-20.3 17.3,-43.9 19.1,-51.9 19.1,-85.5 0,-18.8 -1.7,-44.3 -3.2,-48.5 -0.6,-1.7 -1.2,-1.2 -4.2,3.5 z"
       id="path63"
       style="fill:#000000;stroke:none;stroke-width:0.1" />
    <path
       d="m 2239.9,591.7 c -1.8,19.4 -1.8,57.1 0,68.3 0.7,4.7 3.7,15.7 6.6,24.5 5.1,15.3 16.6,44 18.5,45.9 0.8,0.8 12.7,-0.7 13.7,-1.8 0.2,-0.2 -0.3,-3 -1.1,-6.2 -3.2,-12.4 -5.6,-26.7 -8.1,-47.4 -6.3,-52.6 -8.1,-61.1 -16.7,-79.7 -3.9,-8.4 -9.7,-18.3 -10.7,-18.3 -0.5,0 -1.5,6.6 -2.2,14.7 z"
       id="path64"
       style="fill:#000000;stroke:none;stroke-width:0.1" />
    <path
       d="m 2172,584.8 c 0.1,7 5.8,33.8 9.6,45 4.8,14.3 13.5,26.2 32.2,44 11.3,10.7 17.5,17.6 21.5,23.4 5.6,8.5 14,24.6 17.2,33.1 1.3,3.4 2.2,4.6 3.2,4.2 0.8,-0.3 2.6,-0.8 3.9,-1.1 3,-0.8 3,-1.3 -0.1,-7.5 -1.4,-2.7 -5.5,-12.5 -9.1,-21.7 -3.5,-9.2 -8.2,-21.3 -10.4,-26.8 -2.2,-5.6 -4,-10.5 -4,-10.8 0,-1.2 -19.1,-39 -22.8,-45.1 -8.7,-14.4 -10.8,-16.5 -32.9,-32.5 -6.3,-4.5 -8.3,-5.6 -8.3,-4.2 z"
       id="path70"
       style="fill:#000000;stroke:none;stroke-width:0.1" />
    <path
       d="m 1806.1,592 c -6.3,4.4 -13,9.4 -14.9,11.2 -11.4,10.9 -26.6,38.1 -39.3,70.3 -3.3,8.2 -6.5,16.3 -7.3,18 -0.7,1.6 -3.4,8.4 -6,15 -2.6,6.6 -5.9,14.8 -7.3,18.2 -2.9,7 -2.6,8.8 1.2,9.5 2.5,0.5 4.5,-1.3 4.5,-4.2 0,-2.4 10.4,-21.9 16.5,-31 6,-8.9 14.2,-17.7 25.9,-28.1 12.1,-10.7 22.2,-23.6 27.6,-35.4 5.3,-11.4 14.1,-51.6 11.4,-51.4 -0.5,0 -6,3.6 -12.3,7.9 z"
       id="path72"
       style="fill:#000000;stroke:none;stroke-width:0.1" />
    <path
       d="m 1721.5,634.1 c -2.6,4.9 -6.1,16.3 -9.9,31.9 -1.9,8 -6,21.9 -8.9,31 -7.6,23.3 -7.4,21.2 -2.5,25.5 2.3,1.9 4.9,3.4 5.7,3.3 2.5,-0.5 8.8,-28 11.5,-50.8 1.2,-9.8 5.7,-40.6 6.2,-42.3 0.8,-2.7 -0.4,-2 -2.1,1.4 z"
       id="path79"
       style="fill:#000000;stroke:none;stroke-width:0.1" />
    <path
       d="m 2267.3,635.1 c 1.4,5.6 2.8,16.4 4.2,32.2 1.9,20.9 3.9,35 6.5,46.8 2.4,10.7 3.6,13.3 5.7,12.5 0.8,-0.3 1.8,-0.6 2.2,-0.6 0.5,0 2,-1.2 3.5,-2.6 2.8,-2.9 3.3,-6.8 1.7,-12 -5.2,-15.9 -9.7,-31.7 -13.1,-45.4 -4.7,-18.8 -8.7,-31.7 -10.2,-32.6 -0.7,-0.5 -0.9,0.1 -0.5,1.7 z"
       id="path80"
       style="fill:#000000;stroke:none;stroke-width:0.1" />
    <path
       d="m 2204,670.5 c 1.3,2.2 6.5,9.6 11.5,16.5 12.8,17.3 20.3,29 26.4,40.9 3.9,7.6 5.7,10.1 7.1,10.1 3.9,0 2.3,-5.7 -6.2,-22.5 -6.9,-13.7 -14.1,-23.5 -25,-34 -5.7,-5.5 -11.6,-11.1 -13.2,-12.5 l -2.9,-2.5 z"
       id="path86"
       style="fill:#000000;stroke:none;stroke-width:0.1" />
    <path
       d="m 1779.4,674.1 c -16,14.1 -25,25.9 -34.9,45.6 -6.5,13 -7.6,17 -5,18 1.3,0.4 2.5,-0.2 4.2,-2.3 1.2,-1.6 2.3,-3.2 2.3,-3.6 0,-1.1 8.2,-15 13.7,-23.2 2.9,-4.3 5.3,-8 5.3,-8.3 0,-0.2 2.5,-3.8 5.5,-7.9 9,-12.1 16.7,-23.5 16.3,-23.9 -0.2,-0.3 -3.5,2.3 -7.4,5.6 z"
       id="path87"
       style="fill:#000000;stroke:none;stroke-width:0.1" />
  </g>
  <g
     id="g145"
     inkscape:label="gluts"
     transform="translate(-1632,-88.353889)">
    <path
       d="m 1941.4,694.5 c -24.2,5.9 -54.8,34.2 -61.6,57 -5.3,18 -4.8,39.6 1.3,53.3 2.2,5.1 8.8,14.4 12.8,18 5.2,4.8 15.8,10.9 22.1,12.8 9.3,2.7 29.5,2.6 40.1,-0.3 21,-5.8 33.5,-18.8 36.1,-37.6 1.3,-9.2 0.5,-50.9 -1.1,-55.9 -0.7,-2.1 -1.9,-4.4 -2.7,-5.3 -2.3,-2.3 -9.9,-12.7 -16.8,-23 -3.3,-5 -8.4,-11.6 -11.4,-14.8 -5,-5.2 -5.9,-5.7 -9.6,-5.6 -2.3,0.1 -6.4,0.7 -9.2,1.4 z"
       id="path94"
       style="fill:#000000;stroke:none;stroke-width:0.1" />
    <path
       d="m 2030.1,698.7 c -2.7,3.2 -9.8,12.5 -15.7,20.8 -5.9,8.2 -11.7,16.2 -12.9,17.7 -3.6,4.3 -4.8,13.9 -4.9,38.3 -0.1,29.9 1.5,35.8 13.3,47.3 9.7,9.5 25.1,14.5 44.6,14.5 13.3,0.1 19.6,-1.3 29.8,-6.4 9.7,-5 21.8,-19 25.5,-29.8 5.8,-16.7 4.4,-42.6 -3.1,-57.6 -6.8,-13.6 -26.6,-33.6 -41.9,-42.3 -7,-4 -19.9,-8.2 -25.4,-8.2 -4,0 -4.6,0.4 -9.3,5.7 z"
       id="path95"
       style="fill:#000000;stroke:none;stroke-width:0.1" />
  </g>
  <g
     id="g152"
     inkscape:label="hands"
     transform="translate(-1632,-88.353889)">
    <path
       d="m 1687.7,732.2 c -1.4,1.9 -6.8,5.7 -12.3,8.8 -11.8,6.6 -15,9.2 -20.8,17.3 -2.4,3.4 -8.5,10.2 -13.5,15.1 -5,4.9 -9.1,9.5 -9.1,10.2 0,2 2.7,4.2 5.9,4.9 5.6,1.2 14,-2.1 22.8,-9.2 2.3,-1.8 4.3,-3.3 4.6,-3.3 0.9,0 -3.5,14.9 -11.2,37.7 -4.4,13.4 -8.1,25.9 -8.1,27.8 0,5.5 1.5,7.5 5.5,7.5 4.8,0 8.2,-4.6 12.9,-17.7 4.7,-12.9 8.6,-21.6 9.3,-20.9 0.3,0.3 0.1,1.8 -0.5,3.3 -3.1,7.7 -11.2,39.9 -11.2,44.4 0,5 3.2,8.2 7.3,7.3 1.8,-0.3 3.7,-1.1 4.4,-1.6 0.7,-0.5 4.1,-9.8 7.7,-20.6 6.5,-19.6 9.3,-27.2 10,-27.2 0.2,0 0,1.5 -0.5,3.2 -6.3,22.9 -9.1,41 -6.7,44 3.9,4.9 10.9,1.9 12.9,-5.5 0.6,-2.3 2.4,-8.3 3.9,-13.2 1.6,-5 4,-12.8 5.4,-17.5 5,-16.2 5.6,-13.2 1.5,7.2 -2.1,10 -1.8,15.8 0.6,17.8 2.2,1.8 6.6,0.7 8.6,-2 1.9,-2.5 6.8,-20.2 8.9,-32 0.6,-3.6 2.4,-9.4 4,-13 5.7,-13.3 9,-27.7 9,-39.6 0,-8.4 -1.1,-15.5 -2.4,-15.9 -0.6,-0.2 -5.6,-1.5 -11.1,-2.9 -16.4,-4.3 -27.4,-9.3 -31.4,-14.3 -1.4,-1.8 -2.9,-3.3 -3.2,-3.3 -0.4,0 -1.8,1.5 -3.2,3.2 z"
       id="path100"
       style="fill:#000000;stroke:none;stroke-width:0.1" />
    <path
       d="m 2294.9,733.9 c -6.2,4.8 -21.3,10.6 -35.6,13.6 -5.4,1.2 -8.4,2.3 -8.9,3.4 -1.3,3.3 -1.6,21.3 -0.5,28.9 1.3,8.1 3.8,17 6.6,23.7 2.1,4.8 4.4,13.7 8,30.5 3.2,14.5 4.6,17.7 8.2,18.6 6.4,1.6 8.1,-3.3 6,-17 -2.3,-14.8 -3,-20.2 -2.5,-19.6 0.3,0.3 3.6,10.4 7.3,22.5 4.1,13.6 7.5,22.9 8.8,24.2 4.2,4.6 10.7,1.8 10.7,-4.7 0,-1.8 -1.8,-11.4 -4,-21.3 -2.2,-9.9 -3.9,-18.2 -3.6,-18.4 0.4,-0.5 8.8,24.3 12.2,36.2 2.8,9.8 8.8,14.1 13.4,9.5 3.4,-3.4 2.4,-11.4 -4.4,-38.5 -2,-7.7 -3.6,-14.4 -3.6,-15 0,-2.9 3.3,4.7 7.4,17 5.3,15.9 7.5,20.1 11.2,21.6 5.1,1.9 9.5,-3.5 8,-9.8 -1,-4.3 -2.9,-10.7 -10.6,-36.3 -8.9,-29.2 -8.3,-27 -7.3,-27 0.5,0 2.4,1.5 4.2,3.4 6.9,7.2 19.8,11.4 25.4,8.5 5.2,-2.8 4.4,-4.3 -7.3,-15.8 -4.8,-4.8 -9.9,-10.5 -11.3,-12.8 -4.7,-7.5 -8.9,-11.3 -18.1,-16.8 -5,-2.9 -10.6,-6.5 -12.5,-7.9 -4.2,-3.1 -4.2,-3.1 -7.2,-0.7 z"
       id="path103"
       style="fill:#000000;stroke:none;stroke-width:0.1" />
  </g>
  <g
     id="g147"
     inkscape:label="adductors"
     transform="translate(-1632,-88.353889)">
    <path
       d="m 1981.5,828.2 c -12.9,8.2 -25.7,12.5 -40,13.6 l -10,0.7 0.3,3 c 0.1,1.6 1.2,6.8 2.3,11.5 10.1,42 14.1,65.3 17.4,101.5 2.5,26.8 1.9,25.7 7.2,14.5 9.5,-20.4 18.4,-51.8 23.8,-84.5 1.6,-9.2 3.4,-56.3 2.4,-60.6 -0.4,-1.4 -0.7,-1.4 -3.4,0.3 z"
       id="path112"
       style="fill:#000000;stroke:none;stroke-width:0.1" />
    <path
       d="m 2004.5,841.7 c -1.7,35.9 5,76.8 19.9,121.2 3.6,10.6 6.7,19.6 7,19.9 1.1,1.1 1.5,-0.4 2.6,-9.8 8.6,-74.5 8.7,-74.9 20.6,-119.5 1.3,-5 2.4,-9.5 2.4,-10.2 0,-0.7 -3.2,-1.4 -8.7,-1.8 -15.4,-1.2 -26,-4.6 -36.7,-11.6 -3.2,-2.2 -6,-3.9 -6.1,-3.9 -0.2,0 -0.6,7.1 -1,15.7 z"
       id="path113"
       style="fill:#000000;stroke:none;stroke-width:0.1" />
  </g>
  <g
     id="g148"
     inkscape:label="hamstring"
     transform="translate(-1632,-88.353889)">
    <path
       d="m 2067.1,843.9 c -1.6,1 -1.7,0.3 3.1,19.6 5.6,22.5 6.3,26.6 12.4,82.5 3.6,33.4 7.9,56.8 13.5,73.5 3.5,10.3 11.5,26.1 21.8,42.9 5.4,8.8 10.9,18.1 12.2,20.6 l 2.4,4.5 0.3,-14.5 c 0.3,-15.8 -1,-38.2 -3.2,-55.5 -2.2,-16.1 -4.4,-37.9 -5.6,-55 -4.2,-57.2 -13.2,-90.6 -28.5,-106 -8.6,-8.7 -24,-15.5 -28.4,-12.6 z"
       id="path114"
       style="fill:#000000;stroke:none;stroke-width:0.1" />
    <path
       d="m 1907.8,846.4 c -13.8,5.7 -23.7,17.9 -30.7,37.9 -7.1,20.2 -9.6,33.6 -13.1,70.2 -2,21.6 -3.1,30.9 -5.5,50 -3.4,26.8 -4.4,38.3 -5,57 -0.3,11 -0.8,21 -1.2,22.2 -0.9,3.8 1.2,2.6 3.6,-2 1.2,-2.3 3.4,-6.1 4.9,-8.4 9.1,-14.2 19.6,-32.2 24,-41.3 9.8,-20.4 12.6,-32.3 17.7,-75 6.9,-57.4 10.6,-79.2 17.1,-100.6 1.9,-6.3 3.4,-11.6 3.4,-11.9 0,-1.4 -10.2,-0.2 -15.2,1.9 z"
       id="path115"
       style="fill:#000000;stroke:none;stroke-width:0.1" />
    <path
       d="m 1925.1,851.2 c -3.6,11.3 -8.4,33.3 -11.5,52.8 -1.6,9.8 -2.4,16.5 -5.6,45.5 -1.9,17.5 -3.6,29.2 -6.5,45 -3.5,19.6 -3.5,19.5 -1.9,27.4 3.3,16.1 23.1,70.5 26.4,72.6 1.2,0.8 1.3,1.3 -0.5,-13 -3,-24 -1,-57.9 5.5,-92 4.7,-24.4 4.8,-25.3 6.4,-36.5 5.8,-41 5.4,-46.9 -6.7,-93.8 -2.8,-11 -4,-12.8 -5.6,-8 z"
       id="path116"
       style="fill:#000000;stroke:none;stroke-width:0.1" />
    <path
       d="m 2060.2,849.7 c -2.2,4.4 -8.7,29.1 -12.1,46.2 -2.3,11.2 -2.7,25.2 -1.2,37.3 0.5,4 1.5,12.2 2.1,18.3 0.6,6 2,15.3 3,20.5 2.2,11.5 5.3,28.9 7.6,42.5 3.1,18.8 3,57 -0.2,77 -0.9,5.8 0.8,3.6 5.1,-6.5 8.7,-20.1 18.9,-48.5 21.5,-59.8 2.4,-9.9 2.5,-14.4 0.5,-23.7 -2.3,-10.9 -5.2,-30.3 -7.5,-50 -1.1,-9.9 -2.7,-24.1 -3.6,-31.5 -3.2,-28.5 -5.9,-44.2 -11.1,-64.8 -1.8,-6.9 -2.7,-8.2 -4.1,-5.5 z"
       id="path117"
       style="fill:#000000;stroke:none;stroke-width:0.1" />
  </g>
  <g
     id="g150"
     inkscape:label="not for naming"
     transform="translate(-1632,-88.353889)">
    <g
       id="g149">
      <path
         d="m 1894.6,669.1 c -11.7,4 -20,11.9 -23.4,22.2 -1.9,6 -3.9,15.1 -8.2,37.7 -2.1,11.2 -3.4,16.8 -7.3,32 -5.1,20 -11.7,53.3 -14.1,71.9 -3.1,23 -3.9,41.1 -3.3,72.6 0.7,36.5 3,58.4 9.7,92.5 1,5.2 2.1,11.4 2.5,13.8 1,6 2.2,4.4 3,-4 0.3,-4 1.1,-10 1.6,-13.3 1.4,-9.7 3.7,-28 5.4,-43 2.5,-23.1 6,-43.1 10,-57.5 4.2,-15.5 5,-20.6 4.8,-33.5 -0.1,-15.8 -2.5,-33.9 -5.9,-45.8 -1,-3.2 -2.2,-1.7 -5.2,6 -8,20.7 -15.6,52.6 -19.7,82.8 -0.9,6.6 -1.9,12.2 -2.1,12.4 -0.2,0.2 -0.4,-10.2 -0.4,-23.1 0,-32.6 1.4,-45.5 10,-91.3 2.6,-14.3 5.1,-30.1 5.5,-35 0.8,-10.9 2.2,-17.7 3.8,-18.7 0.7,-0.4 3.7,-0.8 6.7,-0.8 l 5.5,-0.1 6.7,-9.2 c 17,-23.5 35.8,-38.8 55.6,-45.1 4.2,-1.4 9.4,-2.7 11.5,-3.1 2,-0.3 3.7,-1 3.7,-1.6 0,-1.9 -8.7,-9.6 -14.8,-13.2 -13.4,-7.9 -28.7,-9.9 -41.6,-5.6 z"
         id="path84"
         style="fill:#000000;stroke:none;stroke-width:0.1" />
      <path
         d="m 2065.7,669.5 c -9.3,3.3 -16.3,7.5 -21.9,13.1 -2.7,2.6 -4.8,5 -4.8,5.4 0,0.3 3.5,1.5 7.7,2.5 9.6,2.4 20.1,7 27.7,12 9.3,6.1 23,19.9 32.2,32.2 8.9,11.9 9.1,12 18.7,13.2 l 5.2,0.6 1.2,12 c 0.6,6.6 1.7,15.6 2.3,20 1.1,8 1.6,10.8 6.4,37 1.4,7.7 3.3,20.1 4.1,27.5 1.8,15.8 3,63.5 1.8,70 -0.8,4.3 -0.9,3.9 -2.2,-7 -2.9,-25.3 -8.3,-53.9 -13.7,-72 -2.8,-9.5 -8.3,-23 -9.4,-23 -2.3,0 -6.7,22.8 -7.9,41 -0.9,14.6 -0.1,23 3.4,36 5.7,20.8 9,42.6 13,85 2,21.9 3.4,35.5 4.2,40 0.5,3.1 0.6,3.3 1.3,1.3 1.1,-2.7 6.8,-30 8,-37.8 0.5,-3.3 1.6,-10.7 2.5,-16.5 6.5,-42 7.2,-91.2 1.9,-132 -2.4,-18.7 -8.5,-50.6 -14.9,-77.5 -1.4,-5.5 -3.4,-15.4 -4.5,-22 -5.9,-34 -9,-45.2 -13.8,-50 -8.5,-8.6 -18.6,-12.7 -32.2,-13.1 -8,-0.3 -10.5,0 -16.3,2.1 z"
         id="path85"
         style="fill:#000000;stroke:none;stroke-width:0.1" />
      <path
         d="m 1943.8,937.5 c -0.3,0.6 -0.9,3.7 -1.3,7 -0.7,6.1 -5.1,33 -8,48.5 -5.7,31 -7.6,59.8 -5.5,81.4 0.8,8.5 1.6,12.4 2.1,11.1 0.4,-1.1 3.8,-15.7 7.5,-32.5 3.7,-16.8 7.6,-34.3 8.6,-39 3.2,-14.2 3.5,-36.6 0.8,-55.9 -2.3,-17.4 -3.3,-22 -4.2,-20.6 z"
         id="path120"
         style="fill:#000000;stroke:none;stroke-width:0.1" />
      <path
         d="m 2041.2,942.7 c -3,15.9 -3.6,23.3 -3.6,40.8 -0.1,16.8 0.3,20.6 2.7,33 2.9,14.3 7.8,39.4 12.1,61 l 2.3,12 1.4,-6 c 1,-4.4 1.4,-13.3 1.4,-33 0,-28.2 -0.5,-32.7 -7,-68 -0.8,-4.4 -2.8,-16.3 -4.5,-26.4 -1.7,-10.2 -3.2,-18.6 -3.4,-18.8 -0.2,-0.2 -0.8,2.2 -1.4,5.4 z"
         id="path121"
         style="fill:#000000;stroke:none;stroke-width:0.1" />
      <path
         d="m 1961.6,976.1 c -0.3,0.8 -2,6.1 -4,11.9 -6.4,19.3 -22.5,95.9 -25.2,120.2 -0.7,6.3 0.8,11 2.1,6.7 0.4,-1.3 3.4,-8.6 6.6,-16.1 12.5,-29.5 17.4,-53.6 20.4,-100.8 1.3,-20.5 1.3,-25.7 0.1,-21.9 z"
         id="path122"
         style="fill:#000000;stroke:none;stroke-width:0.1" />
      <path
         d="m 2024.6,984.2 c 2.2,41.2 4.2,57.9 9.8,81.8 3.6,15.1 16.2,51.7 17.5,50.5 0.8,-0.8 0.3,-12 -1,-22 -1.2,-9 -3.8,-23.9 -7.5,-42.5 -1.4,-6.9 -3.4,-17.7 -4.5,-24 -1.1,-6.3 -3.1,-16.2 -4.5,-22 -2.6,-11.2 -8.4,-29 -9.5,-29 -0.3,0 -0.5,3.3 -0.3,7.2 z"
         id="path123"
         style="fill:#000000;stroke:none;stroke-width:0.1" />
    </g>
    <path
       d="m 1891.3,1027.7 c -1.3,3.2 -5.4,11.6 -9.3,18.7 l -7,12.8 6.4,8.7 c 3.5,4.7 7.4,10.6 8.6,13.1 l 2.2,4.4 1.9,-2.4 c 5.7,-7.7 7.8,-9.9 11.6,-12.8 l 4.3,-3.2 -2.6,-6.8 c -3,-8 -10,-29.1 -11.5,-34.4 -0.5,-2.1 -1.3,-3.8 -1.7,-3.8 -0.4,0 -1.7,2.6 -2.9,5.7 z"
       id="path126"
       style="fill:#000000;stroke:none;stroke-width:0.1" />
    <path
       d="m 2091.3,1024 c -2.9,7.3 -14.3,41.9 -14.3,43.1 0,0.8 2.3,3.2 5.1,5.3 2.8,2 6.3,5.7 7.9,8.2 l 2.8,4.5 2.1,-3.4 c 1.2,-1.9 2.1,-3.8 2.1,-4.3 0.1,-0.8 2.7,-4.3 11.5,-15 l 2.6,-3.2 -3.2,-5.3 c -2.7,-4.7 -11.8,-23.2 -14.6,-29.9 l -1.1,-2.5 z"
       id="path127"
       style="fill:#000000;stroke:none;stroke-width:0.1" />
  </g>
  <g
     id="g151"
     inkscape:label="calfs"
     transform="translate(-1632,-88.353889)">
    <path
       d="m 1868.5,1068.2 c -12.7,17.7 -23.1,42.3 -30.7,72.7 -4.2,16.6 -4.2,16.6 -4.2,35.6 0,16.7 0.3,20.6 2.7,32.5 1.5,7.4 4.3,22.9 6.2,34.5 4.3,25.8 6.8,39.6 10.6,59 7.4,37.3 8.8,55.4 5.5,67.5 -0.9,3.2 -1.6,9.6 -1.6,15 v 9.5 l -4.2,4.4 c -5.7,5.9 -13.4,11.5 -18.3,13.3 -4.7,1.8 -8.5,6.8 -8.5,11 0,7.4 7.4,12.7 20.4,14.8 7.2,1.1 13.6,3.2 23.6,7.8 2.3,1 7.4,1.7 14.6,2 14.7,0.5 20.8,-1.1 25.8,-6.9 4.7,-5.5 5.3,-10.1 3.3,-25.9 -1.6,-12.9 -1.3,-20.5 1.4,-30.5 1.7,-6.3 1.4,-14.4 -1,-21.9 -3.5,-11.3 -2.9,-27.4 2.4,-60.6 4,-25.5 4.7,-30.1 5.5,-37.5 0.6,-4.4 1,-9.6 1,-11.5 l -0.1,-3.5 -1.5,2.9 c -5.7,10.5 -14.2,39.8 -18.4,63.6 -4.1,23.2 -6.9,53.8 -6.6,73 l 0.1,7.5 -3.8,0.9 c -5.2,1.3 -5.7,0.3 -5.7,-12.5 0,-16.7 -3.7,-47.8 -8.6,-71.9 -2,-10.2 -8.9,-34.5 -12.5,-44.4 -3.7,-10 -13.9,-30.4 -18.6,-37.4 -2,-2.8 -3.4,-5.4 -3.1,-5.7 0.2,-0.3 2,0.3 3.9,1.2 2.3,1.2 5.9,1.7 11,1.8 7.3,0 7.7,-0.1 12.2,-3.8 3,-2.5 5.6,-5.9 7.6,-10 l 3,-6.2 0.4,-34 c 0.4,-28.7 0.9,-37.6 3.2,-57 2.6,-22.4 2.6,-23 1,-29.5 -1,-3.6 -3.1,-8.9 -4.8,-11.9 -3,-5.4 -8.3,-12.1 -9.6,-12.1 -0.3,0 -1.9,1.9 -3.6,4.2 z"
       id="path128"
       style="fill:#000000;stroke:none;stroke-width:0.1" />
    <path
       d="m 2111.1,1066.2 c -3.6,3.2 -10.7,14.8 -12.5,20.1 -2,5.9 -2,13.8 -0.2,28.2 2.4,17.9 3.8,47.7 3.4,72.2 l -0.3,22.8 2.6,5 c 3,5.7 7,9.9 11.4,12.3 4.5,2.4 14,2.1 19.3,-0.6 2.3,-1.2 4.2,-1.9 4.2,-1.6 0,0.4 -2,3.9 -4.4,7.8 -11.2,18 -22.4,44.8 -27.4,65.6 -8.8,36.2 -12.6,61.7 -13.4,90 l -0.3,8.5 -4.2,0.3 c -2.4,0.2 -4.3,0 -4.4,-0.5 -0.1,-0.4 -0.2,-9.4 -0.4,-19.8 -0.3,-22.7 -3.9,-53.3 -9.1,-79 -2.8,-13.4 -11.1,-40.4 -14.1,-45.5 -1.3,-2.3 -1.4,-1.5 -0.9,8 0.3,5.8 1.5,16.6 2.6,24 1.2,7.4 2.5,17.1 3,21.4 0.5,4.4 1.5,11.6 2.1,16 1.5,11.1 1.6,34.3 0,38.1 -0.7,1.6 -1.9,6 -2.6,9.7 -1.3,6.2 -1.3,7.6 0.6,18 2.1,11.6 2.1,14.4 0,33.7 -1.6,14 1,20.9 9.4,24.8 3.1,1.4 6.4,1.8 16.5,1.8 12.3,0 12.7,-0.1 23,-4.2 5.9,-2.3 14,-4.6 18.5,-5.3 13.4,-2 20.5,-7.3 20.5,-15.3 0,-4.4 -5.2,-10.4 -9.8,-11.3 -3.3,-0.7 -16.8,-11.6 -19.6,-15.9 -1.4,-2.1 -1.6,-3.9 -1,-9.9 0.5,-5.2 0.1,-10.8 -1.2,-18.6 -2.3,-15 -1.2,-27.3 5.6,-58 2.6,-11.8 6.3,-30.7 8.4,-42.5 0.9,-5 3.7,-20 6.2,-33.5 8.6,-45.4 8.6,-45.1 8.1,-61 -1,-31.4 -14.6,-75 -31.4,-100.7 -4.7,-7.2 -5.5,-7.7 -8.2,-5.1 z"
       id="path129"
       style="fill:#000000;stroke:none;stroke-width:0.1" />
    <path
       d="m 1905,1076.2 c -7.9,5.3 -10.8,13.3 -14.4,39.8 -5.1,37.3 -6.4,71.3 -3.3,89.2 1.9,10.9 7.1,21.1 14.7,28.8 9.1,9.3 19.9,12.9 23.2,7.7 2.3,-3.6 6.6,-14.5 9.4,-24.2 2.4,-8.1 2.7,-10.7 2.8,-25.5 0.1,-9.1 -0.5,-20.3 -1.2,-25 -0.7,-4.7 -2,-13.2 -2.8,-19 -3.9,-27.1 -9.1,-46.9 -16.7,-64 -4.8,-10.7 -6.1,-11.6 -11.7,-7.8 z"
       id="path130"
       style="fill:#000000;stroke:none;stroke-width:0.1" />
    <path
       d="m 2069.1,1083.7 c -10,22.3 -13.9,38 -20.7,81.8 -4.6,30.1 -2.2,53.4 7.5,72.4 3.4,6.5 7.6,7.3 16.6,2.9 7.3,-3.6 17.4,-16.5 21.4,-27.1 5.4,-14.8 5,-66.7 -1,-108.7 -1.3,-9.6 -4.2,-18.9 -7.1,-23.4 -2.3,-3.5 -8.2,-7.6 -11,-7.6 -0.8,0 -3.2,4 -5.7,9.7 z"
       id="path131"
       style="fill:#000000;stroke:none;stroke-width:0.1" />
  </g>
</svg>
