<svg
   version="1.0"
   width="200pt"
   height="400pt"
   viewBox="0 0 739.18561 1359.8492"
   preserveAspectRatio="xMidYMid"
   id="svg141"
   sodipodi:docname="Gemini_Generated_Image_xdts1jxdts1jxdts_1_.svg"
   xmlns:inkscape="http://www.inkscape.org/namespaces/inkscape"
   xmlns:sodipodi="http://sodipodi.sourceforge.net/DTD/sodipodi-0.dtd"
   xmlns="http://www.w3.org/2000/svg"
   xmlns:svg="http://www.w3.org/2000/svg">
  <defs
     id="defs141" />
  <sodipodi:namedview
     id="namedview141"
     pagecolor="#ffffff"
     bordercolor="#000000"
     borderopacity="0.25"
     inkscape:showpageshadow="2"
     inkscape:pageopacity="0.0"
     inkscape:pagecheckerboard="0"
     inkscape:deskcolor="#d1d1d1"
     inkscape:document-units="pt" />
  <path
     d="m 355.99999,0.31001434 c -21.7,3.79999996 -37.9,14.59999966 -46.1,30.89999966 -5.7,11 -6.4,15 -6.4,34.1 v 17.1 l -2.2,-1 c -3.1,-1.4 -6.8,1.2 -8.3,5.8 -2.5,7.7 4.4,31.999996 10.8,37.799996 1.1,1 3.3,2.2 4.8,2.6 2.8,0.7 2.9,1 4.2,10.5 0.7,5.4 1.9,11.1 2.7,12.5 4,7.7 20.9,23 31.2,28.1 6.7,3.4 7,3.4 20.3,3.4 12.6,0.1 13.9,-0.1 19.3,-2.6 3.1,-1.5 8.3,-4.7 11.5,-7.1 7.1,-5.5 18.9,-17.3 20.7,-20.8 1,-1.9 5.5,-21 5.5,-23.5 0,-0.2 1.2,-0.4 2.6,-0.4 5.9,0 11.8,-11.3 14.9,-28.299996 1.9,-10 1,-14.6 -3.1,-17.4 -2.2,-1.4 -2.6,-1.4 -4.8,0 l -2.4,1.6 0.5,-14.7 c 0.6,-16.5 -0.7,-25.3 -5.2,-35 -7,-15.2 -21.5,-27.0999997 -39,-31.7999997 -5.8,-1.49999996 -26.3,-2.69999996 -31.5,-1.79999996 z"
     id="path1"
     style="fill:#000000;stroke:none;stroke-width:0.1"
     inkscape:export-filename="path1.svg"
     inkscape:export-xdpi="96"
     inkscape:export-ydpi="96"
     inkscape:label="Head" />
  <g
     id="g141"
     inkscape:label="neck"
     transform="translate(-420.00001,-88.289986)">
    <path
       d="m 736.3,258.5 c 0.4,13.1 0.6,14.7 4.4,26 4.6,13.4 11,29 16.9,40.9 2.9,5.9 4.9,8.5 8.1,10.7 2.3,1.6 5.7,4.3 7.5,5.9 3.2,3 4.8,3.7 4.8,2.3 0,-0.5 -3,-9.6 -6.6,-20.3 -3.7,-10.7 -9.7,-29.2 -13.3,-41.1 l -6.6,-21.6 -7.9,-8.4 -7.8,-8.4 z"
       id="path7"
       style="fill:#000000;stroke:none;stroke-width:0.1" />
    <path
       d="m 830,254.2 c -8.1,8.8 -9,10.3 -11,18.8 -1.3,5.6 -5.3,17.6 -13,39.5 -7.2,20.4 -10,28.8 -10,30.2 0,2 1.7,1.6 4.8,-1.1 1.5,-1.3 4.7,-3.9 7.2,-5.8 2.5,-1.9 5.5,-5.2 6.7,-7.3 3.7,-6.5 18.5,-44.4 20.5,-52.5 1.6,-6.6 3.7,-30 2.7,-30 -0.2,0 -3.8,3.7 -7.9,8.2 z"
       id="path8"
       style="fill:#000000;stroke:none;stroke-width:0.1" />
    <path
       d="m 760.8,276.2 c 2.1,9.2 10,35.4 16.9,55.8 4.9,14.3 7.1,17 11.5,13.6 2.5,-1.8 26.8,-73.1 26.8,-78.3 0,-1 -1,-0.8 -3.8,0.6 -7.6,3.9 -15.9,5.3 -27.7,4.9 -10.7,-0.4 -13.4,-1.1 -25.1,-6.4 -0.5,-0.3 0,4 1.4,9.8 z"
       id="path9"
       style="fill:#000000;stroke:none;stroke-width:0.1" />
  </g>
  <g
     id="g142"
     inkscape:label="traps"
     transform="translate(-420.00001,-88.289986)">
    <path
       d="m 723,283.2 c -8.4,5.3 -21.3,12.4 -38,21.1 -18.9,9.7 -22.3,11.8 -21.3,12.7 2.1,2 39.7,12 45.2,12 7,0 17.8,-16.4 20.5,-31 2.3,-12.8 2.8,-19 1.4,-18.9 -0.7,0 -4.2,1.9 -7.8,4.1 z"
       id="path10"
       style="fill:#000000;stroke:none;stroke-width:0.1" />
    <path
       d="m 841.4,282.2 c 0.3,1.8 0.8,5.7 1.1,8.7 1.5,13.5 6.6,26 13.7,33.7 4.8,5.2 7,5.5 19.3,2.3 4.4,-1.2 9.8,-2.5 12,-3 3.5,-0.9 17.6,-5.1 21.4,-6.5 2,-0.7 0.3,-1.8 -17.4,-10.9 C 874,297.4 851,284.7 846,281.3 c -4.6,-3 -5.2,-2.9 -4.6,0.9 z"
       id="path11"
       style="fill:#000000;stroke:none;stroke-width:0.1" />
    <path
       d="m 735.6,281 c -0.3,0.8 -1,5.3 -1.6,10 -1.9,14.3 -6.6,25.9 -13.9,34.2 -3.5,3.9 -3.9,4.7 -2.4,5.2 1,0.2 9.6,0.8 19.1,1.1 13.2,0.6 17.2,0.4 17.2,-0.5 0,-1.4 -4.4,-14.7 -9.6,-28.5 -2,-5.5 -4.7,-12.9 -6,-16.5 -1.3,-3.6 -2.5,-5.8 -2.8,-5 z"
       id="path12"
       style="fill:#000000;stroke:none;stroke-width:0.1" />
    <path
       d="m 833,291.2 c -1.8,5.1 -4.5,13.1 -6,17.8 -1.6,4.7 -4,11.6 -5.4,15.4 -1.4,3.7 -2.6,7.1 -2.6,7.3 0,0.7 31.3,-0.6 35.3,-1.3 l 2.7,-0.6 -4.4,-4.9 c -7.5,-8.3 -11,-17.2 -13.7,-34.7 -0.7,-4.5 -1.6,-8.2 -2,-8.2 -0.3,0 -2.1,4.2 -3.9,9.2 z"
       id="path13"
       style="fill:#000000;stroke:none;stroke-width:0.1" />
  </g>
  <g
     id="g149"
     inkscape:label="sholduers"
     transform="translate(-420.00001,-88.289986)">
    <g
       id="g143">
      <path
         d="m 630.5,323.7 c -11,1.5 -29.3,12.1 -39.3,22.8 -17.9,19.1 -27.3,46.7 -24.2,71 1.1,8.7 6,25.8 8.4,29 1.4,2 1.5,2 4,-0.4 2.6,-2.4 2.6,-2.7 2.6,-16.5 0,-24 3.7,-40.2 13.3,-59 9.3,-18.2 23.8,-33 42.7,-43.4 l 7.5,-4.2 -6,0.2 c -3.3,0 -7.3,0.3 -9,0.5 z"
         id="path17"
         style="fill:#000000;stroke:none;stroke-width:0.1" />
      <path
         d="m 650.5,325 c -12.7,3.1 -32.4,18 -44.1,33.2 -9.1,11.8 -16.8,30.3 -19.8,47.8 -1.4,8.3 -2.3,34 -1.2,34 0.3,0 2,-1.4 3.8,-3.1 5.4,-5 13.7,-11.2 22.3,-16.4 14.6,-9 20.2,-15.6 30.6,-35.8 10.7,-20.9 20.8,-33.6 34.2,-42.9 5.1,-3.6 6.2,-4.9 6.2,-7.2 0,-4 -3.3,-6.2 -12.9,-8.6 -8.1,-2.1 -13.8,-2.4 -19.1,-1 z"
         id="path18"
         style="fill:#000000;stroke:none;stroke-width:0.1" />
    </g>
    <g
       id="g144">
      <path
         d="m 929,323 c 0,0.5 0.4,1 0.8,1 0.4,0 5.5,3.1 11.3,6.9 21.5,14.1 34.6,30.6 43.2,54.7 4,11.1 5.7,21.5 6.7,39.8 0.9,15.3 1.2,17.2 3.2,19.3 1.2,1.3 2.4,2.3 2.8,2.3 1.3,0 4.3,-6.4 5.5,-11.8 5.8,-25.5 3.9,-45.2 -6.2,-66.2 -9.6,-19.8 -21.6,-31.7 -41,-40.7 -9.5,-4.4 -26.3,-7.8 -26.3,-5.3 z"
         id="path16"
         style="fill:#000000;stroke:none;stroke-width:0.1" />
      <path
         d="m 904.5,325.9 c -7.1,2 -13,4.7 -14.5,6.7 -1.7,2 1.7,6.3 9.4,11.8 12.6,9 22.9,22.8 35.1,47 6.3,12.6 12.8,19.7 24.7,27.1 9.1,5.7 18.2,12 20.9,14.7 2.8,2.7 8,6 8.6,5.4 0.3,-0.3 0.1,-7.4 -0.5,-15.8 -2.9,-39 -16.6,-66 -43.5,-86.1 -16.8,-12.5 -26,-14.9 -40.2,-10.8 z"
         id="path19"
         style="fill:#000000;stroke:none;stroke-width:0.1" />
    </g>
  </g>
  <g
     id="g150"
     inkscape:label="chest"
     transform="translate(-420.00001,-88.289986)">
    <path
       d="m 693,338.5 c -16.1,4.5 -33.1,21.2 -45.2,44.4 -2.2,4.2 -5.6,10.5 -7.6,14.1 -3.1,5.5 -3.6,7.4 -3.6,12.5 0.1,15.1 14.4,41.6 29.1,54 12.9,11 23,14.5 41.4,14.5 25.2,0 53.3,-7.4 64.2,-17 10.1,-8.8 11.6,-17.1 9.9,-53.7 -1.6,-33.1 -2.8,-39.1 -10.3,-50.3 -10.1,-15.2 -19.6,-18.6 -54.4,-19.5 -14.3,-0.4 -19.1,-0.2 -23.5,1 z"
       id="path20"
       style="fill:#000000;stroke:none;stroke-width:0.1" />
    <path
       d="m 840,338.1 c -17.4,1.7 -26.4,5.3 -33.9,13.4 -10.9,11.8 -14.1,27.2 -14.1,68.1 0,26.4 0.7,30.3 6.9,38.2 6.4,8 20.3,13.8 44,18.2 13.4,2.5 34.3,2.7 42.2,0.4 19.7,-5.8 38.5,-25.3 47.4,-49.4 2.2,-5.9 2.8,-9.3 2.9,-16 0.1,-8.5 0.1,-8.6 -5.7,-20 -15.1,-29.9 -31.3,-46.7 -50.4,-52.5 -5.3,-1.6 -24.8,-1.8 -39.3,-0.4 z"
       id="path21"
       style="fill:#000000;stroke:none;stroke-width:0.1" />
  </g>
  <g
     id="g151"
     inkscape:label="sartorius"
     transform="translate(-420.00001,-88.289986)">
    <path
       d="m 642.1,461.3 c -0.9,38.4 -1,37.1 3.3,48.2 4.5,11.9 14.1,32.1 15.5,33 0.7,0.4 1.1,-0.4 1.1,-1.8 0,-1.3 1.1,-4.1 2.5,-6.1 1.4,-2 2.5,-3.9 2.5,-4.2 0,-0.3 -2,-4.7 -4.6,-9.6 -2.5,-5 -4.4,-9.2 -4.2,-9.4 0.2,-0.1 2.2,0.2 4.4,0.7 4.6,1.2 8.7,0 10.3,-3 0.9,-1.6 0.4,-2.9 -2.5,-7.2 -1.9,-2.9 -4.4,-5.9 -5.5,-6.7 -1,-0.7 -2.3,-2.1 -2.9,-3.2 -0.9,-1.7 -0.7,-1.8 2.2,-0.9 1.8,0.5 4.6,0.9 6.2,0.9 3.2,0 13.2,-5.5 14,-7.7 0.3,-0.8 -2,-3 -5.7,-5.5 -14.2,-9.5 -26,-20.7 -32.7,-31 -1.4,-2.1 -2.7,-3.8 -3,-3.8 -0.3,0 -0.7,7.8 -0.9,17.3 z"
       id="path33"
       style="fill:#000000;stroke:none;stroke-width:0.1" />
    <path
       d="m 926.2,450.3 c -6.3,8.4 -18.6,20 -28.2,26.6 -4.7,3.2 -8.5,6.4 -8.5,7.1 0,0.7 2.9,2.8 6.3,4.6 4.8,2.6 7.6,3.4 11.4,3.4 h 5 l -5,5.4 c -2.7,3 -5.2,6.3 -5.4,7.3 -1.3,4.9 3.7,9 9.4,7.8 1.6,-0.4 2.8,-0.2 2.8,0.3 0,0.6 -1.6,4.4 -3.5,8.5 -3.9,8.2 -4.3,10.8 -2,12.7 0.8,0.7 2.1,3.3 2.9,5.9 1.3,4.4 1.4,4.5 2.4,2.1 0.5,-1.4 2.6,-5.3 4.5,-8.7 4.4,-7.7 10.7,-23.4 13.2,-32.6 1.7,-6.3 1.7,-8.3 0.6,-25.5 -0.6,-10.3 -1.3,-21.4 -1.4,-24.7 l -0.2,-6 z"
       id="path36"
       style="fill:#000000;stroke:none;stroke-width:0.1" />
  </g>
  <g
     id="g161"
     inkscape:label="biceps"
     transform="translate(-420.00001,-88.289986)">
    <g
       id="g146">
      <path
         d="m 623.3,418.5 c -8.6,3.4 -19.5,10.1 -26.4,16.3 -14.2,12.9 -24.6,36.8 -31,71.1 -2.7,14.7 -2.7,38.4 0,47.1 3.6,11.4 6.1,12.2 18.9,5.7 10.4,-5.2 23.3,-16.9 32.5,-29.5 12.9,-17.7 17.8,-28.8 20.1,-45.6 3.9,-28.3 0.3,-67.8 -6.1,-67.5 -1,0 -4.6,1.1 -8,2.4 z"
         id="path27"
         style="fill:#000000;stroke:none;stroke-width:0.1" />
      <path
         d="m 565.2,452.2 c -7.9,14.1 -12.2,25.3 -15.4,40.3 -2.7,12.7 -2.8,28.2 -0.4,38 2.3,9.1 8.5,27.7 9.7,29 0.5,0.5 0.9,-4.5 0.9,-13 0,-28.3 4.3,-57 11.4,-75.8 1.5,-3.8 2.6,-8.8 2.6,-11.5 0,-4.9 -2.6,-14.2 -3.9,-14.2 -0.4,0 -2.6,3.3 -4.9,7.2 z"
         id="path35"
         style="fill:#000000;stroke:none;stroke-width:0.1" />
      <path
         d="m 626.9,522.7 c -6.3,10.1 -23.9,30.1 -30.9,35 -1.1,0.8 -2.5,2.4 -3.1,3.5 -1.7,3.1 1.2,4.8 8.3,4.8 10,0 12,-1.5 17.2,-12.2 5.6,-11.6 13.1,-34.8 11.3,-34.8 -0.3,0 -1.6,1.7 -2.8,3.7 z"
         id="path45"
         style="fill:#000000;stroke:none;stroke-width:0.1" />
    </g>
    <g
       id="g145">
      <path
         d="m 940.1,416.9 c -0.7,0.4 -2.2,5.1 -3.4,10.2 -3.6,16.6 -2.6,51.7 2,67.9 6.8,24.5 29.6,53.6 50.2,64 8.1,4.2 12.6,4.4 15.2,1 5.2,-6.8 7,-26.6 4.4,-47 -4.1,-33 -14.7,-61.3 -27.8,-74.3 -12.4,-12.4 -35.7,-25 -40.6,-21.8 z"
         id="path28"
         style="fill:#000000;stroke:none;stroke-width:0.1" />
      <path
         d="m 1001.2,449.5 c -2.9,7.5 -2.8,9.4 1.3,21.8 7.4,22.7 9.4,34.8 10.4,64.5 0.5,13.4 1.1,24.5 1.4,24.8 0.2,0.3 1.7,-3.5 3.1,-8.3 1.5,-4.8 3.1,-9.8 3.6,-11.1 5,-12.2 6.6,-32.6 3.5,-45.7 -3.1,-13.7 -8.6,-29.5 -13.6,-39.2 -6.9,-13.5 -7.1,-13.6 -9.7,-6.8 z"
         id="path34"
         style="fill:#000000;stroke:none;stroke-width:0.1" />
      <path
         d="m 944.5,522.2 c 2.3,11.8 12.8,36.2 17.8,41.5 1.6,1.8 3.1,2.3 7.4,2.3 5.6,0 12.3,-2.1 12.3,-3.9 0,-0.6 -1.5,-2.3 -3.2,-3.8 -7.7,-6.5 -16.9,-16.6 -25.1,-27.6 -4.8,-6.4 -9,-11.7 -9.3,-11.7 -0.3,0 -0.3,1.5 0.1,3.2 z"
         id="path46"
         style="fill:#000000;stroke:none;stroke-width:0.1" />
    </g>
  </g>
  <g
     id="g152"
     inkscape:label="oblique"
     transform="translate(-420.00001,-88.289986)">
    <path
       d="m 690.5,487.5 c -9.6,2.6 -15.5,6.7 -15.5,10.7 0,6.8 15.7,17.6 27,18.6 7.5,0.6 9.5,-1.5 9.5,-10.2 0,-4.9 -0.6,-7.1 -2.8,-10.8 -4.8,-8.2 -10,-10.6 -18.2,-8.3 z"
       id="path41"
       style="fill:#000000;stroke:none;stroke-width:0.1" />
    <path
       d="m 872.5,488.9 c -7,3.6 -11,12.1 -9.8,20.8 0.8,5.9 3.1,7.7 9.1,7.1 6.8,-0.7 14.8,-4.6 21.3,-10.6 6.8,-6.2 7.7,-8.6 4.4,-11.6 -7.1,-6.5 -18.3,-9.1 -25,-5.7 z"
       id="path42"
       style="fill:#000000;stroke:none;stroke-width:0.1" />
    <path
       d="m 893.5,514.7 c -4.6,1.1 -17.3,5.8 -21.7,8 -6.1,3 -8.8,7.9 -8.8,16 0,3.8 0.6,6.7 1.6,8.2 1.5,2.1 2.2,2.3 6.9,1.8 12.2,-1.2 35.5,-20.6 35.5,-29.5 0,-2.9 -8.4,-5.8 -13.5,-4.5 z"
       id="path43"
       style="fill:#000000;stroke:none;stroke-width:0.1" />
    <path
       d="m 671,516.8 c -4.6,2.3 -4.9,5.1 -1.2,10.3 3.5,4.8 15.7,14.7 22.6,18.4 5.1,2.8 14.1,4.3 16.4,2.7 3.5,-2.4 3.2,-15.2 -0.4,-20.8 -2,-3 -8.1,-6.2 -18.8,-9.8 -9.2,-3 -13.8,-3.3 -18.6,-0.8 z"
       id="path44"
       style="fill:#000000;stroke:none;stroke-width:0.1" />
    <path
       d="m 893.4,541.9 c -3.8,2.6 -10,6.5 -13.9,8.5 -9.2,4.9 -10.7,5.8 -12.6,7.9 -2.6,2.8 -4.2,10.2 -3.6,16.8 1.3,14.9 8.2,14.7 24.6,-0.7 16.1,-15.2 22.7,-26.6 19.6,-34.1 -2,-4.8 -5.5,-4.5 -14.1,1.6 z"
       id="path53"
       style="fill:#000000;stroke:none;stroke-width:0.1" />
    <path
       d="m 665.8,540.4 c -1.8,4.2 0.6,11.2 6.9,19.5 9.2,12.3 22.7,24.1 29.1,25.8 3.2,0.8 7,-1.2 8.2,-4.3 0.6,-1.4 1,-6 1,-10.3 0,-10.8 -1.6,-12.9 -15,-20.1 -5.8,-3.1 -13.1,-7.3 -16.2,-9.3 -7,-4.6 -12.2,-5 -14,-1.3 z"
       id="path54"
       style="fill:#000000;stroke:none;stroke-width:0.1" />
    <path
       d="m 667,560.7 c 0,2.7 4.2,35.5 4.9,38.5 0.5,2 1.8,5.2 3,7.1 4.3,7 24.2,22.7 28.7,22.7 4.8,0 8.3,-12 6.4,-21.8 -2,-9.8 -5.1,-14.2 -14.8,-21 -9.4,-6.5 -16.3,-12.7 -23.6,-21 -2.5,-2.9 -4.6,-4.9 -4.6,-4.5 z"
       id="path57"
       style="fill:#000000;stroke:none;stroke-width:0.1" />
    <path
       d="m 903.6,563.5 c -2.7,4.2 -14.8,15.8 -21.6,20.8 -11.8,8.6 -13,9.8 -15,13.6 -5.7,11.3 -3.5,31.1 3.5,31.1 3.5,0 16.7,-9.4 23.9,-17 7.9,-8.4 9.1,-11.9 10.6,-30.5 0.6,-7.7 1.3,-15.5 1.6,-17.3 0.7,-3.8 -0.7,-4.2 -3,-0.7 z"
       id="path58"
       style="fill:#000000;stroke:none;stroke-width:0.1" />
    <path
       d="m 669.2,609.1 c -0.6,1.9 -2.1,9.9 -3.3,17.9 -2.3,15.9 -2.2,31 0.4,37.2 0.8,1.8 4.5,6 8.3,9.3 3.8,3.2 8,7 9.4,8.4 4.9,4.7 17.5,13.5 21.3,14.8 3.4,1.2 4.2,1.2 6.4,-0.2 6.1,-4 6.7,-13.8 2.4,-35.3 -4,-19.6 -5.4,-21.7 -21.7,-34 -8.9,-6.7 -16.8,-14.1 -20.1,-18.6 l -2,-2.9 z"
       id="path77"
       style="fill:#000000;stroke:none;stroke-width:0.1" />
    <path
       d="m 902,607.8 c 0,2.1 -10.3,12 -20.3,19.5 -12.9,9.7 -13.9,10.7 -16.6,16.8 -2.2,5 -8.1,32.9 -8.1,38.4 0,4 2.2,10 4.7,12.7 2,2.2 6.4,2.3 10.6,0.2 7.7,-4 32.7,-25.7 35.2,-30.7 2.7,-5.2 2.9,-17.4 0.6,-34.7 -2.2,-16.7 -3.6,-23 -5.1,-23 -0.6,0 -1,0.3 -1,0.8 z"
       id="path78"
       style="fill:#000000;stroke:none;stroke-width:0.1" />
  </g>
  <path
     d="m 362.39999,552.81001 c -1.9,2.1 -1.8,2.1 0.5,4 3,2.4 6.3,2.4 9.2,-0.1 l 2.4,-2 -2.4,-2 c -3,-2.6 -7.3,-2.6 -9.7,0.1 z"
     id="path81"
     style="fill:#000000;stroke:none;stroke-width:0.1" />
  <g
     id="g153"
     transform="translate(-420.00001,-88.289986)">
    <path
       d="m 757,478 c -13.1,2.7 -23.2,7.3 -29.5,13.4 -6.3,6.2 -7.5,9.6 -8.2,22.8 -0.6,10.6 -0.1,13.8 2.3,16.2 2.4,2.5 5.4,1.9 16.5,-3 12.1,-5.4 18.6,-7.8 28.9,-10.5 15.4,-4.1 16.4,-5.2 16.4,-20.9 0,-9.2 -0.3,-11.2 -2.2,-14.2 -3.9,-6.2 -8.9,-7 -24.2,-3.8 z"
       id="path39"
       style="fill:#000000;stroke:none;stroke-width:0.1" />
    <path
       d="m 796.9,477.5 c -4.3,2.3 -6,7.3 -6,17.9 -0.1,9.3 1.3,14.9 4.2,17.3 0.8,0.6 4.1,1.9 7.4,2.8 12.5,3.5 19.4,5.9 31.7,11.2 7,3 13.7,5.3 15,5.1 8.1,-1.1 8.7,-24.1 1,-36.5 -4.9,-7.8 -18.2,-14.3 -36.7,-17.8 -9.8,-1.8 -13.2,-1.8 -16.6,0 z"
       id="path40"
       style="fill:#000000;stroke:none;stroke-width:0.1" />
    <path
       d="m 798.3,524.2 c -5.9,1.5 -6.8,4.9 -6.8,24 0,18.9 0.7,20.9 7.9,23.4 9.2,3.2 44.9,6.5 49.8,4.5 4,-1.5 5.8,-5 6.5,-12.4 0.8,-9.1 -1.2,-14.1 -8.3,-20.6 -6.5,-6 -14.1,-10.2 -25.4,-14.2 -11.6,-4.1 -19.7,-5.7 -23.7,-4.7 z"
       id="path49"
       style="fill:#000000;stroke:none;stroke-width:0.1" />
    <path
       d="m 765.5,524.7 c -20.8,4.8 -38.1,14.6 -44.2,25.1 -4.7,8 -2.7,23.9 3.4,26.3 3.4,1.3 19.9,0.6 36.3,-1.7 20.9,-2.8 22.4,-4.6 22.3,-26.9 -0.1,-16.1 -1.1,-20.2 -5.2,-22.5 -2,-1 -8.8,-1.2 -12.6,-0.3 z"
       id="path50"
       style="fill:#000000;stroke:none;stroke-width:0.1" />
    <path
       d="m 750,582 c -27.8,2 -30.5,4.2 -30.5,24.5 0,13.6 1.3,19.5 5.3,23.5 4.1,4 16.3,6.3 34.2,6.4 13,0.1 14.8,-0.1 17.2,-1.9 5.6,-4.2 6.3,-6.6 6.6,-24 0.4,-16.8 -0.4,-22.5 -3.7,-26.6 -1.6,-2 -2.8,-2.3 -10.2,-2.5 -4.6,-0.1 -13.1,0.1 -18.9,0.6 z"
       id="path67"
       style="fill:#000000;stroke:none;stroke-width:0.1" />
    <path
       d="m 798,581.7 c -5.4,2.3 -7.4,10.8 -6.8,29.2 0.4,15.1 1.8,19.6 7.1,23.5 2.6,1.9 4.2,2.1 17.5,2 17.3,0 28.5,-2.1 33.2,-6.1 4.6,-3.9 6.2,-10.9 5.8,-25.8 -0.4,-17.4 -2.1,-19.1 -19.6,-21.4 -9.9,-1.3 -35.3,-2.3 -37.2,-1.4 z"
       id="path68"
       style="fill:#000000;stroke:none;stroke-width:0.1" />
    <path
       d="m 725.1,643.8 c -1.6,2.9 -1.4,18.3 0.3,27.2 3,15.4 8.2,32.5 17.7,57.6 12.4,33 21.9,52.7 27.9,57.7 3.2,2.7 9.6,4.3 13.1,3.2 l 2.2,-0.7 -0.6,-31.7 c -0.4,-17.4 -1.1,-46.2 -1.7,-64 -1,-29.5 -1.2,-32.7 -3.2,-36.5 -2.5,-5.1 -4.5,-7.4 -8,-9.2 -4.8,-2.5 -15.9,-4.2 -31.4,-4.9 -14.7,-0.7 -15.2,-0.7 -16.3,1.3 z"
       id="path82"
       style="fill:#000000;stroke:none;stroke-width:0.1" />
    <path
       d="m 828.5,642.7 c -8.3,0.6 -23.7,3.4 -26.6,4.8 -1.5,0.8 -3.9,2.8 -5.3,4.6 -6,7.1 -5.8,4.8 -6.4,73.5 l -0.5,63.2 2.2,0.7 c 4.7,1.4 10.2,-0.5 15,-5.4 6.4,-6.4 12,-18.8 24.7,-54.8 16.2,-46.2 18.1,-53.1 19.1,-71 0.5,-9.5 0.3,-11.6 -1.1,-13.7 -1.5,-2.4 -2.1,-2.6 -8.9,-2.4 -3.9,0.1 -9.4,0.3 -12.2,0.5 z"
       id="path83"
       style="fill:#000000;stroke:none;stroke-width:0.1" />
  </g>
  <g
     id="g147"
     transform="translate(-420.00001,-88.289986)">
    <path
       d="m 542.1,539.3 c -1.3,2.3 -6.1,9.8 -10.5,16.7 -8.9,13.6 -10.3,16.8 -11.7,26.8 -1.5,9.8 -5.8,42.3 -7,52.2 -1.2,10.2 -4.4,26.6 -6.5,33.5 -1.6,5 -2.9,7.7 -15.4,32.5 -3.8,7.4 -7,14.4 -7.2,15.5 -0.2,1.6 0.7,2.3 4.9,3.7 2.9,1 5.9,1.5 6.6,1.2 0.8,-0.3 3.9,-5.8 6.8,-12.2 5.9,-12.6 13.6,-26.5 24.4,-43.7 9.9,-15.7 20.8,-38.8 25.4,-53.6 5.7,-18.2 5.4,-44.3 -0.7,-61.9 -1.9,-5.4 -6,-15 -6.5,-15 -0.1,0 -1.3,1.9 -2.6,4.3 z"
       id="path51"
       style="fill:#000000;stroke:none;stroke-width:0.1" />
    <path
       d="m 582,573.4 c -14.3,3.9 -22.9,12.7 -23,23.3 0,2.4 0.2,4.3 0.5,4.3 0.3,0 4.5,-2.6 9.3,-5.9 4.8,-3.2 11.4,-7.3 14.7,-9.1 8.4,-4.6 18.5,-11.1 18.5,-12 0,-2.3 -12.6,-2.7 -20,-0.6 z"
       id="path61"
       style="fill:#000000;stroke:none;stroke-width:0.1" />
    <path
       d="m 596.6,582.5 c -3.3,1.3 -8.2,3.8 -10.8,5.5 -2.7,1.6 -5.2,3 -5.4,3 -1.3,0 -16.4,11.8 -20,15.6 -2.3,2.5 -5.3,7.3 -6.9,11.2 -9.4,23.1 -15.7,36.2 -23.6,48.6 -12.4,19.5 -18.8,31.2 -27.4,50 -2.6,5.8 -2.7,6 -0.9,7.3 1.1,0.8 3,1.7 4.3,2 3.1,0.8 4.1,-0.4 18,-21.7 10.3,-15.7 18.1,-26 29.6,-39.5 7.1,-8.2 16.7,-21.4 32,-44 7.1,-10.5 14.3,-21 16,-23.5 3.5,-5 6.5,-12 6.5,-15 0,-2.8 -3.9,-2.6 -11.4,0.5 z"
       id="path66"
       style="fill:#000000;stroke:none;stroke-width:0.1" />
    <path
       d="m 512.3,591.6 c -4.7,12.3 -7.6,24.2 -11.3,46.9 -2,12.3 -7.7,41.3 -9.6,49.3 -0.9,3.5 -1.4,6.6 -1.1,6.9 0.6,0.6 9.9,-18.5 12.3,-25.1 1.9,-5.4 5,-18.7 6.3,-27.1 4.2,-28.2 7.4,-54.7 6.9,-57.2 -0.2,-1 -1.7,1.6 -3.5,6.3 z"
       id="path71"
       style="fill:#000000;stroke:none;stroke-width:0.1" />
    <path
       d="m 601.4,602.8 c -1.1,1.5 -8.7,12.6 -16.9,24.7 -15,22.3 -23.5,33.7 -32,42.9 -10.8,11.7 -38.5,51.9 -38.5,56 0,1.8 6.8,5.9 8.6,5.2 0.7,-0.3 2.9,-3.7 4.8,-7.5 8.3,-16.7 23.3,-34.9 41.5,-50.1 15.2,-12.7 28.8,-36.5 34,-59.6 2.2,-9.5 2.6,-14.4 1.4,-14.3 -0.5,0 -1.7,1.2 -2.9,2.7 z"
       id="path75"
       style="fill:#000000;stroke:none;stroke-width:0.1" />
    <path
       d="m 560.9,684.6 c -9.2,8.9 -17.3,18.8 -24.8,30.5 -7.5,11.6 -9.9,17.2 -8.1,19.4 2.5,3.1 4.6,1.7 8.4,-5.8 5.3,-10.1 13.5,-23.1 23.9,-37.5 4.9,-6.8 8.7,-12.6 8.4,-12.9 -0.4,-0.3 -3.8,2.5 -7.8,6.3 z"
       id="path90"
       style="fill:#000000;stroke:none;stroke-width:0.1" />
  </g>
  <g
     id="g148"
     transform="translate(-420.00001,-88.289986)">
    <path
       d="m 1026.9,538.7 c -0.6,2.1 -1.5,4.2 -1.9,4.8 -0.4,0.5 -2.2,5.5 -4,11 -5.7,18 -5.2,36.1 1.6,56.4 4.8,14.5 18.6,42.2 27.9,56 11.9,17.6 18,28.7 26.6,47.9 1.6,3.4 3.5,6.5 4.3,6.8 2.5,1 11.6,-2.5 11.6,-4.5 0,-2.2 -5.5,-13.6 -11.3,-23.3 -4.8,-8.1 -10.8,-22.2 -13.3,-31.1 -1.9,-7 -5.1,-24.5 -6.9,-38.4 -1.8,-13.4 -5.9,-37.1 -8,-46.1 -1.9,-8 -3.9,-11.8 -14.2,-27.4 -4.6,-7 -8.6,-13.4 -8.9,-14.3 -1,-2.5 -2.2,-1.7 -3.5,2.2 z"
       id="path52"
       style="fill:#000000;stroke:none;stroke-width:0.1" />
    <path
       d="m 974.3,572.7 c -2.5,0.9 -1.2,2.2 7.5,7.4 4.8,2.8 13.8,8.5 20.1,12.6 6.2,4.1 12,7.7 12.7,8 1.9,0.7 0.7,-7.9 -1.7,-12.8 -4.6,-9.2 -17.8,-16 -30.7,-15.8 -3.7,0 -7.3,0.3 -7.9,0.6 z"
       id="path62"
       style="fill:#000000;stroke:none;stroke-width:0.1" />
    <path
       d="m 967.3,582.9 c 0.7,5.7 4,11.7 17.3,31.2 15.9,23.7 26.1,37.1 40.5,53.9 13.9,16.1 31.7,40.1 35.9,48.5 2.3,4.5 6.6,9.5 8.2,9.5 1.8,0 7.8,-2.6 7.8,-3.4 0,-0.2 -1.2,-3 -2.6,-6.2 -6.6,-15 -14.5,-29.1 -26.9,-47.9 -6.8,-10.4 -18.1,-31.9 -23.1,-44 -4.6,-11.4 -7.3,-15.7 -12.7,-20.7 -2.9,-2.6 -5.5,-4.8 -5.9,-4.8 -0.4,0 -4.5,-2.6 -9,-5.9 -10.4,-7.3 -16.5,-10.7 -22,-12.1 -2.4,-0.6 -5.2,-1.4 -6.2,-1.7 -1.7,-0.5 -1.8,-0.1 -1.3,3.6 z"
       id="path65"
       style="fill:#000000;stroke:none;stroke-width:0.1" />
    <path
       d="m 1058,583.9 c 0,0.7 0.7,5 1.5,9.5 0.8,4.4 2.2,13.3 3.1,19.6 2.7,19.9 5.5,36.2 7.5,44 3.5,13.5 13,36.7 15.9,38.5 1.4,0.8 1.6,2 -3.9,-20.7 -2.7,-11.2 -6.1,-28 -7.6,-37.3 -1.5,-9.4 -3.5,-20.2 -4.5,-24 -3.2,-12.3 -12,-34.1 -12,-29.6 z"
       id="path69"
       style="fill:#000000;stroke:none;stroke-width:0.1" />
    <path
       d="m 970.5,606.5 c 1.4,12.7 7.6,28.9 18.1,47.5 4.4,7.7 12.6,16.5 20.9,22.5 12.6,9 33.9,34.4 40.6,48.3 1.7,3.5 3.7,6.6 4.4,6.8 1.4,0.6 5,-0.9 7.7,-3.3 1.6,-1.4 1.5,-1.8 -0.9,-5.7 -8.1,-12.9 -21.3,-32.1 -26.7,-38.6 -6.7,-8.2 -7,-8.6 -17.9,-21.2 -9.6,-11 -19.1,-23.8 -30.2,-40.6 -4.8,-7.3 -10.5,-15.1 -12.7,-17.5 l -3.9,-4.2 z"
       id="path76"
       style="fill:#000000;stroke:none;stroke-width:0.1" />
    <path
       d="m 1007,679.9 c 0,0.6 0.4,1.2 0.9,1.5 2.9,1.8 26.2,34.9 34,48.3 4.3,7.5 6.2,8.8 8.1,5.3 2.6,-4.9 -12.3,-26.9 -31.9,-47.3 -7.7,-7.9 -11.1,-10.3 -11.1,-7.8 z"
       id="path91"
       style="fill:#000000;stroke:none;stroke-width:0.1" />
  </g>
  <g
     id="g155"
     inkscape:label="abductors"
     transform="translate(-420.00001,-88.289986)">
    <path
       d="m 662.7,677.2 c -1.8,2.6 -5.9,16.8 -8.2,27.8 -2,9.5 -4.6,29.2 -4,29.9 1,0.9 3.3,-3.5 8.5,-16.3 3,-7.2 7.3,-17 9.7,-21.9 2.4,-4.8 4.3,-9.1 4.3,-9.5 0,-0.6 -6.9,-10.3 -8.5,-12 -0.2,-0.2 -1,0.7 -1.8,2 z"
       id="path88"
       style="fill:#000000;stroke:none;stroke-width:0.1" />
    <path
       d="m 906.1,680.2 c -2.3,3 -4.1,5.8 -4.1,6.1 0,0.3 2.1,5 4.6,10.4 2.5,5.4 5.4,11.8 6.4,14.3 3.7,9.2 10.2,22 11.2,22 1.2,0 1,-2.1 -2.1,-19 -3.4,-18.7 -8.2,-35.5 -11,-38.3 -0.5,-0.5 -2.5,1.3 -5,4.5 z"
       id="path89"
       style="fill:#000000;stroke:none;stroke-width:0.1" />
    <path
       d="m 894.5,692.4 c -3.1,3.3 -3.2,3.7 -3.8,15.3 -0.8,14.6 0.5,26.6 3.9,36.9 4.7,14 20.2,47.5 27.2,58.8 2.7,4.4 14.2,27.1 16.7,33.1 4.3,10.4 9.4,24.8 10.6,29.9 2.6,11.7 3.9,5.2 1.9,-9.6 -0.5,-4 -1.4,-11.1 -2,-15.8 -3.4,-27 -12.5,-65.1 -20.9,-87.6 -2.9,-7.8 -12.2,-29.1 -19.8,-45.4 -2.2,-4.7 -5.1,-10.9 -6.3,-13.8 -1.2,-2.8 -2.7,-5.2 -3.3,-5.2 -0.5,0 -2.4,1.5 -4.2,3.4 z"
       id="path92"
       style="fill:#000000;stroke:none;stroke-width:0.1" />
    <path
       d="m 672.3,696.2 c -1.7,3.5 -5.6,12.1 -8.8,19.3 -3.1,7.1 -6.6,14.9 -7.7,17.3 -3.6,8.1 -13.7,39.7 -16.2,51 -4.1,17.9 -7.6,41.7 -9.5,63.2 -1.2,14 -1.8,27.1 -1.2,26.4 0.3,-0.2 2,-5.7 3.8,-12.2 5,-17.5 11.4,-33.1 24.4,-59.2 24.2,-48.7 28.9,-64.9 27,-94.1 -0.8,-11.6 -0.8,-11.7 -4.2,-14.7 -1.9,-1.8 -3.7,-3.2 -4,-3.2 -0.3,0 -2,2.8 -3.6,6.2 z"
       id="path93"
       style="fill:#000000;stroke:none;stroke-width:0.1" />
  </g>
  <g
     id="g163"
     inkscape:label="hands"
     transform="translate(-420.00001,-88.289986)">
    <path
       d="m 478.6,730.9 c -0.4,0.5 -6.8,4.7 -14.4,9.4 -13.9,8.7 -18,12.2 -24.5,21.2 -1.9,2.7 -7.2,8.6 -11.6,13 -4.5,4.4 -8.1,8.8 -8.1,9.8 0,2.5 6.4,5.1 10.8,4.3 5,-0.8 11.8,-4.4 18,-9.4 4.9,-4 5.4,-4.2 5,-2.1 -1.5,7.1 -5.4,19.5 -9.7,31.2 -11.9,32.5 -12.7,41.2 -4.1,40.9 5.7,-0.1 7.9,-3.1 13,-18.2 3.6,-10.3 7.7,-19.7 9.1,-20.6 0.5,-0.3 0.4,0.7 -0.1,2.2 -1.1,2.9 -3.2,10.5 -8.1,28.9 -3.4,13 -3.7,20.4 -1.1,22.8 4.2,3.8 11.4,0.4 12.7,-6 1.5,-6.9 13.2,-41.3 14.1,-41.3 0.5,0 0.6,-0.3 -4.2,19.4 -4.4,18.4 -4.8,24.7 -1.8,27.7 1.7,1.6 2.9,2 5.1,1.5 3.7,-0.8 5.4,-3.8 8.7,-14.6 1.4,-4.7 3.4,-11.2 4.5,-14.5 1.1,-3.3 3,-9.4 4.2,-13.5 2.9,-9.6 3.5,-7.6 1.4,4.2 -3.3,18.2 -3.2,23.8 0.5,25.8 2.7,1.5 7.4,-1 8.8,-4.7 0.9,-2.3 3.5,-11.8 5.6,-20.8 3.4,-14.5 5.1,-20.4 7.1,-24.9 3.4,-7.6 6.3,-20.3 7.6,-32.6 1.3,-12.1 0.8,-17.3 -1.8,-20.2 -2.5,-2.8 -14.3,-8.1 -29.5,-13.3 -7,-2.4 -13.6,-4.9 -14.7,-5.4 -1.2,-0.7 -2.2,-0.7 -2.5,-0.2 z"
       id="path101"
       style="fill:#000000;stroke:none;stroke-width:0.1" />
    <path
       d="m 1096,730.9 c -0.8,0.5 -7.3,3 -14.5,5.5 -15,5.4 -22.7,8.8 -27.2,12.3 l -3.3,2.4 v 11.1 c 0,13.1 2.4,24.6 8,38.8 2.1,5.2 5.3,14.9 7,21.5 7.7,28.9 8.4,30.5 13.8,30.5 3.4,0 4.7,-2.8 4.5,-9.4 -0.1,-5.3 -1.9,-17.4 -3.9,-26.6 -1.3,-5.8 1.6,0.1 4.1,8.5 5.9,19.9 11.7,36.4 13.5,38 2.6,2.3 8,2.3 9.7,-0.1 2,-2.6 1.2,-8.2 -3.7,-28.3 -2.2,-9 -3.8,-16.6 -3.6,-16.9 0.3,-0.3 0.9,0.6 1.4,1.9 2.4,6.4 8.6,24.4 11.3,32.6 2.1,6.5 3.7,9.8 5.6,11.3 4.6,3.6 9.8,2.1 10.8,-3.3 0.5,-3 -3.1,-18.5 -9.4,-40.6 -3.5,-11.9 -1.8,-10.5 3.4,2.9 5.4,14 9.7,23.1 11.7,24.7 0.7,0.6 2.5,1.4 3.9,1.8 2.1,0.5 3.1,0.1 4.8,-2.1 1.1,-1.5 2.1,-3.7 2.1,-5 0,-1.4 -3.2,-11.8 -7.1,-23.2 -8.5,-25.2 -12.9,-39.1 -12.9,-41.5 0,-1.5 0.8,-1.2 4.3,1.7 6,4.9 15.3,9.6 19.2,9.6 1.7,0 4.6,-0.5 6.4,-1.1 5.6,-2 4.3,-5 -5.9,-14.7 -5,-4.7 -10.7,-10.8 -12.7,-13.6 -4,-5.5 -11.3,-13.6 -12.4,-13.6 -1.3,0 -22.6,-13 -23.9,-14.5 -1.4,-1.7 -2.8,-1.8 -5,-0.6 z"
       id="path102"
       style="fill:#000000;stroke:none;stroke-width:0.1" />
  </g>
  <g
     id="g154"
     inkscape:label="adductors"
     transform="translate(-420.00001,-88.289986)">
    <path
       d="m 688.3,702.5 c -0.7,2 1.3,20.7 3.2,29.5 16.3,74.5 17.2,78 26.1,103.5 6.9,20 12.9,38 18.4,55.5 2.3,7.4 4.8,15.5 5.6,17.9 2.6,7.7 7.2,27.3 8.8,37.1 3.6,22.7 4.1,27.2 4,40.5 -0.1,21.5 -2.8,34.3 -11.9,57.1 -3,7.2 -5.6,15.4 -6,18 -1.7,13 -2.8,19.8 -5,29.9 -4.2,20 -5.5,26.5 -5.5,28.7 0,2.1 0,2.1 2.1,0.2 3.2,-2.9 14.2,-26.4 18.8,-40.1 8,-24 12.2,-49.7 15.2,-93.3 2.4,-35 2.1,-50.6 -1.1,-76.5 -4.1,-32 -9.6,-52.6 -25,-92.5 -2.9,-7.4 -6.5,-16.9 -8,-21 -1.5,-4.1 -5.8,-14.7 -9.5,-23.5 -3.7,-8.8 -9.8,-25.7 -13.7,-37.5 -3.8,-11.8 -8.2,-24.1 -9.6,-27.3 -2.9,-6.3 -5.8,-9 -6.9,-6.2 z"
       id="path96"
       style="fill:#000000;stroke:none;stroke-width:0.1" />
    <path
       d="m 879.5,709.5 c -1.9,4.1 -3.5,8 -3.5,8.7 0,2.1 -8.5,29.4 -13.5,43.3 -2.5,7.1 -5.2,14.8 -6,17 -0.7,2.2 -2.8,7.8 -4.5,12.5 -1.7,4.7 -5.8,16.1 -9.1,25.5 -3.3,9.3 -6.6,18.8 -7.4,21 -6.4,18.1 -12.5,49.9 -14.5,76.7 -1.3,16.3 -0.9,46.2 0.9,61.8 0.5,4.7 1.4,13.7 2.1,20 2.6,27.1 8.7,59.2 14.7,76.9 3.7,11 11.8,29.5 16.1,37.1 5.5,9.5 9.8,13.8 8.8,8.7 -2.1,-10 -6.6,-30.1 -9,-39.7 -0.8,-3 -1.7,-8.2 -2.1,-11.5 -0.7,-6.3 -3.2,-13.4 -8.5,-25 -12.5,-27.2 -16.3,-52.4 -12.5,-84 3.4,-28.4 6.5,-42.3 19.4,-86 1,-3.3 2.5,-8.7 3.5,-12 0.9,-3.3 4.3,-15 7.5,-26 7.5,-25.5 10.2,-36.8 15.2,-65.5 1.1,-6.3 3.1,-17.1 4.4,-24 2.7,-14 4.1,-23.9 5,-35.3 0.5,-7.2 0.5,-7.7 -1.4,-7.7 -1.5,0 -2.9,1.9 -5.6,7.5 z"
       id="path97"
       style="fill:#000000;stroke:none;stroke-width:0.1" />
    <path
       d="m 703,719.1 c 0,1.5 4.7,15.8 9,27.4 5.4,14.6 13.3,35.1 14,36.4 0.6,1.1 1.5,0.3 3.5,-3 1.6,-2.4 3.9,-6.1 5.2,-8.1 1.2,-2.1 2.3,-4.6 2.3,-5.7 0,-1.9 -9.6,-16.1 -24.4,-36 -9.6,-12.9 -9.6,-12.9 -9.6,-11 z"
       id="path98"
       style="fill:#000000;stroke:none;stroke-width:0.1" />
    <path
       d="M 867.4,723.3 C 858,735.4 839,764.5 839,767 c 0,1.6 10,16 11.1,16 0.5,0 0.9,-0.1 0.9,-0.3 0,-0.1 0.9,-2.7 2.1,-5.7 1.1,-3 2.6,-7.3 3.4,-9.5 0.7,-2.2 4.3,-12.7 7.9,-23.2 5.9,-17.5 8.4,-26.4 7.5,-26.2 -0.2,0 -2.2,2.3 -4.5,5.2 z"
       id="path99"
       style="fill:#000000;stroke:none;stroke-width:0.1" />
    <path
       d="m 736.7,774.7 c -1.3,2.1 -3.7,6.1 -5.2,9 l -2.9,5.2 1.8,5.3 c 3.6,10.2 3.2,10.3 9.7,-3.2 3.3,-6.7 5.9,-12.6 5.9,-13.1 0,-1.1 -5,-6.9 -6.1,-6.9 -0.5,0 -1.9,1.7 -3.2,3.7 z"
       id="path106"
       style="fill:#000000;stroke:none;stroke-width:0.1" />
    <path
       d="m 833.8,772.7 c -2.6,3 -3.8,6.1 -3.2,8 1.2,3.2 11.9,22.3 12.6,22.3 0.4,0 1.7,-3.1 2.9,-6.9 l 2.2,-6.9 -3.3,-5.8 c -3.8,-6.9 -7.8,-12.4 -8.9,-12.4 -0.4,0 -1.5,0.8 -2.3,1.7 z"
       id="path107"
       style="fill:#000000;stroke:none;stroke-width:0.1" />
    <path
       d="m 745.9,786.6 c -3.6,5.9 -8.9,18.7 -8.9,21.6 0,1.5 1.7,7.2 3.9,12.5 15.6,39.4 21,61.9 26.8,112.8 l 0.8,7 2.3,-8.3 c 6.4,-22.9 8.1,-36.9 9.3,-75.8 0.7,-18.8 0.9,-35.7 0.5,-37.5 -0.5,-2.6 -1.7,-4.1 -5.2,-6.3 -4.5,-2.9 -8.3,-7 -19.8,-22 -3.2,-4.2 -6.2,-7.6 -6.7,-7.6 -0.4,0 -1.7,1.6 -3,3.6 z"
       id="path108"
       style="fill:#000000;stroke:none;stroke-width:0.1" />
    <path
       d="m 819.7,792.3 c -6.5,9.2 -13,16.5 -19.5,21.9 -3.8,3.1 -3.8,1.8 -1.7,36.8 1.3,23.5 2.2,30.2 6.5,52.5 3.2,16 8.9,35.7 11.1,38 0.5,0.5 0.9,-4.6 0.9,-13 0.1,-23.7 3.8,-53.3 9.5,-74.5 1.4,-5.2 5.1,-17.2 8.1,-26.5 l 5.6,-17 -2.1,-6.5 c -2.4,-7.2 -9.1,-20.2 -10.7,-20.7 -0.6,-0.2 -4,3.9 -7.7,9 z"
       id="path109"
       style="fill:#000000;stroke:none;stroke-width:0.1" />
  </g>
  <g
     id="g156"
     inkscape:label="quads"
     transform="translate(-420.00001,-88.289986)">
    <path
       d="m 886.6,740.1 c -0.8,2.6 -1.6,6.9 -3.6,18.7 -1.1,6.4 -3.1,16.6 -4.5,22.7 -1.3,6 -3.6,17.1 -5,24.5 -2.7,14.2 -3.3,16.4 -8.6,32.5 -3.9,12 -4.7,23.4 -3,41.2 1.7,17.1 2.2,19.8 8.1,46.3 2.3,10.1 7.4,26.2 11,34.5 4.4,10.1 9,24.8 11.1,35.5 2.3,11.5 3.3,13 7.8,11.5 2.1,-0.6 4,-5.2 10.4,-24.5 8.3,-24.8 10.7,-34.7 13.3,-55 3,-24 0.6,-68.5 -5.5,-101 -3.3,-17.7 -7.1,-33.3 -9.1,-37.5 -4.2,-9.1 -13.5,-30.7 -17.2,-40 -4.4,-11.1 -4.6,-11.4 -5.2,-9.4 z"
       id="path104"
       style="fill:#000000;stroke:none;stroke-width:0.1" />
    <path
       d="m 685.8,746.4 c -1.7,6.3 -8.8,24 -15.3,38.3 -6.1,13.1 -10.5,41.9 -12.6,82.4 -2.2,43.2 2,76.9 13.8,108.9 10,27.5 10.6,28.7 14.5,31 3.7,2 5.5,0.2 6.3,-6.3 1.2,-9.3 4.3,-21 10.4,-39.3 3.3,-9.8 6.9,-21.5 8,-26 4,-15.6 8.2,-51.1 8.5,-70.4 l 0.1,-11.5 -5.7,-16.5 c -6.7,-19.6 -10,-30.9 -12.7,-44.7 -4,-19.9 -11.5,-50.1 -12.8,-51.4 -0.5,-0.5 -1.6,2 -2.5,5.5 z"
       id="path105"
       style="fill:#000000;stroke:none;stroke-width:0.1" />
    <path
       d="m 918.4,808.5 c 0.9,4 3.6,18.2 5,27 8,46.8 7.4,88.9 -1.4,121 -1.2,4.4 -2.6,9.3 -3,11 -0.4,1.6 -2.4,8.2 -4.3,14.6 -4.3,13.9 -6.7,26.2 -6.7,33.8 0.1,10.7 5,34.8 6.9,33.6 0.5,-0.2 1.2,-2.6 1.6,-5.2 1.2,-8.3 4.3,-14.6 13.2,-27.4 12.6,-18 16.8,-27.3 20.9,-46.3 7.5,-34.8 5.7,-66.9 -5.8,-105.1 -5.2,-17.1 -19,-48.4 -25.1,-56.6 -1.5,-2.1 -1.7,-2.1 -1.3,-0.4 z"
       id="path110"
       style="fill:#000000;stroke:none;stroke-width:0.1" />
    <path
       d="m 656.2,813.2 c -4.8,8 -13.1,28.1 -17.2,41.8 -11.3,37.8 -13.1,83.6 -4.6,117 4.7,18.4 9.3,27.9 21.6,44.5 10,13.4 12.2,17.5 14.6,26.9 0.9,3.6 2,6.6 2.4,6.6 1.8,0 5.3,-19.7 5.3,-30 0,-11.2 -1.4,-17.8 -7.4,-35.4 -13.8,-40.3 -17.9,-62.9 -17.9,-97 0,-15.1 3.7,-63.8 5.6,-74.4 0.4,-1.7 0.4,-3.2 0.1,-3.2 -0.3,0 -1.4,1.5 -2.5,3.2 z"
       id="path111"
       style="fill:#000000;stroke:none;stroke-width:0.1" />
    <path
       d="m 722.1,893 c -3.3,30.8 -5.8,43 -13.6,66 -2.5,7.4 -6,18.6 -7.7,24.9 -2.8,10.6 -3,12.9 -3.2,29.1 -0.1,19.8 0.9,25.1 6.6,33.6 3.9,5.8 8.5,8.4 14.9,8.4 17.6,0 31.9,-31.7 31.9,-70.7 0,-23.8 -6.3,-52.9 -20.6,-96.3 -6.3,-18.9 -5.7,-19.2 -8.3,5 z"
       id="path118"
       style="fill:#000000;stroke:none;stroke-width:0.1" />
    <path
       d="m 854.1,878.2 c -0.7,2.9 -2.3,8.7 -3.6,12.8 -1.3,4.1 -3.3,11.1 -4.3,15.5 -1.1,4.4 -2.8,10.7 -3.6,14 -7.7,28.5 -10.4,58.7 -7.2,80.5 4.9,33.5 17.5,53.9 33.4,54 11.5,0 18,-9.9 20.2,-30.7 1.8,-16.9 -2.3,-37.5 -13,-65.3 -8.9,-23 -13.6,-42.3 -17.6,-72.3 -1,-7.5 -2.1,-13.7 -2.5,-13.7 -0.3,0 -1.1,2.4 -1.8,5.2 z"
       id="path119"
       style="fill:#000000;stroke:none;stroke-width:0.1" />
    <path
       d="m 938.1,1015.7 c -5.2,11.3 -7.3,21.4 -7.4,34.8 0,13.8 3.4,32.5 7.2,39.4 0.5,0.7 1,-16.2 1.3,-37.5 0.3,-21.4 0.5,-39 0.4,-39.2 -0.2,-0.1 -0.8,1 -1.5,2.5 z"
       id="path124"
       style="fill:#000000;stroke:none;stroke-width:0.1" />
    <path
       d="m 647.5,1020.5 c 0.5,6.8 2.5,49.7 2.8,62.5 l 0.2,8.5 1.8,-4 c 3.1,-6.7 4.7,-18.2 4.7,-32.8 0,-15.8 -1.3,-22.5 -6.6,-33.2 l -3.4,-7 z"
       id="path125"
       style="fill:#000000;stroke:none;stroke-width:0.1" />
  </g>
  <g
     id="g160"
     inkscape:label="tibialis"
     transform="translate(-420.00001,-88.289986)">
    <path
       d="m 920.1,1100.6 c -2.4,3.1 -6.2,14.5 -9.6,28.9 -6.5,27.5 -8.5,51.8 -8.5,105.5 0,41.6 -0.2,45.1 -4.5,79 -0.7,5.8 -1.2,10.6 -1.1,10.7 0.1,0.1 1.4,0.3 3.1,0.5 l 2.9,0.3 2.7,-15 c 2.6,-15.3 6.3,-29.8 14.4,-57.5 8.5,-29.2 12.2,-45.9 14.4,-64.5 2.4,-19.8 0.6,-62.8 -3.2,-79.1 -2.6,-10.9 -6.4,-14.1 -10.6,-8.8 z"
       id="path133"
       style="fill:#000000;stroke:none;stroke-width:0.1" />
    <g
       id="g157">
      <path
         d="m 662.1,1100.5 c -6,7.7 -9.1,55.1 -5.6,86 2.5,22.1 5,32.9 14.5,62 7.8,23.9 12.5,41.3 17.5,64 2.6,11.9 3,13 4.9,13.3 2.9,0.6 4.8,-1.8 4.2,-5.2 -4.7,-23 -6.6,-43.2 -6.6,-69.9 -0.1,-43.9 -2.5,-74.9 -8.1,-103.6 -5.2,-27.2 -10.9,-44.6 -15.5,-47.5 -3,-2 -2.9,-2.1 -5.3,0.9 z"
         id="path132"
         style="fill:#000000;stroke:none;stroke-width:0.1" />
      <path
         d="m 649.5,1102.2 c -15.6,44.4 -17.8,72.1 -9,112.2 2,8.9 4.7,21.3 6.1,27.6 1.4,6.3 3.2,14.6 4,18.5 0.7,3.8 2.5,12.2 3.9,18.5 1.3,6.3 2.9,14.2 3.5,17.5 0.7,3.3 1.6,8 2.2,10.5 0.5,2.5 1.8,9.2 2.9,14.9 1,5.7 2.1,10.7 2.5,11 0.3,0.3 5.1,-1 10.7,-3 l 10.2,-3.5 -0.2,-4.9 c -0.2,-2.8 -1,-8.2 -2,-12 -4.4,-18.3 -10,-38.9 -15.9,-58 -10.3,-33.7 -11.3,-37.8 -14.5,-57 -2.7,-16.3 -3.3,-56.7 -1,-70.4 1.1,-6.9 1.2,-9.5 0.1,-15.3 -1.3,-6.8 -2.6,-9.2 -3.5,-6.6 z"
         id="path134"
         style="fill:#000000;stroke:none;stroke-width:0.1" />
    </g>
    <path
       d="m 936.6,1107.1 c -1.7,5.8 -1.7,6.4 0.1,16.2 2.2,12.6 2.5,56.2 0.4,69.2 -3.9,24.6 -5.5,30.9 -21.1,85.5 -3.6,12.9 -9,39.9 -9,45.5 0,3.1 0,3.1 11.1,6.4 6.1,1.7 11.3,3.1 11.4,2.9 0.2,-0.2 1.5,-7.5 2.9,-16.3 3.3,-19.9 2.9,-18 7.7,-42.5 2.2,-11.3 4.4,-22.8 4.9,-25.5 0.5,-2.8 2.3,-12.9 3.9,-22.5 1.7,-9.6 3.9,-21.3 4.8,-26 2.1,-10.6 2.3,-33.4 0.4,-45 -2.7,-17.1 -12.9,-54 -15,-54 -0.3,0 -1.5,2.7 -2.5,6.1 z"
       id="path135"
       style="fill:#000000;stroke:none;stroke-width:0.1" />
  </g>
  <g
     id="g159"
     transform="translate(-420.00001,-88.289986)">
    <path
       d="m 855.7,1121.7 c -1,1.7 -5.7,34.5 -6.6,46.9 -1.6,20.3 0.2,31.8 8.5,54.9 2,5.5 4.3,11.9 5.1,14.2 0.8,2.4 1.8,4.3 2.2,4.3 1.4,0 18.1,-34.7 19.2,-40 2,-9.2 0.6,-24.9 -3.1,-35 -3.6,-10.1 -11.1,-25 -18.6,-37.2 -5.6,-9 -5.9,-9.4 -6.7,-8.1 z"
       id="path137"
       style="fill:#000000;stroke:none;stroke-width:0.1" />
    <path
       d="m 885.7,1209.5 c -0.9,3.1 -3.5,8.7 -5.6,12.5 -2.2,3.8 -5.7,10.4 -7.8,14.6 -3.6,7.4 -3.8,8.3 -3.8,17.3 0,7.2 0.9,14 3.7,27.1 2,9.6 4.4,23.1 5.3,30 0.9,6.9 1.9,13.6 2.2,15 l 0.5,2.5 1.3,-2.6 c 3.1,-5.8 5.8,-23.1 7.6,-48.6 1.3,-18.8 0.8,-70.8 -0.7,-72.3 -0.7,-0.7 -1.6,0.8 -2.7,4.5 z"
       id="path138"
       style="fill:#000000;stroke:none;stroke-width:0.1" />
    <g
       id="g158">
      <path
         d="m 728.6,1128.3 c -7,11.8 -16,30.9 -19.3,40.7 -2.5,7.5 -2.8,10 -2.8,21.1 v 12.6 l 6.2,11.9 c 12,23.3 14.8,28.4 15.4,28.4 0.4,0 0.9,-1 1.2,-2.3 0.3,-1.2 2.1,-6.7 4,-12.2 8.3,-23.7 9.2,-28.4 9.2,-47 0,-15.8 -1.3,-27.3 -4.5,-42 -0.5,-2.2 -1.4,-6.9 -2.1,-10.5 -0.6,-3.6 -1.5,-7 -1.8,-7.7 -0.3,-0.6 -2.8,2.6 -5.5,7 z"
         id="path136"
         style="fill:#000000;stroke:none;stroke-width:0.1" />
      <path
         d="m 702.8,1217.2 c -0.8,44.2 3.5,95 8.9,106.6 3.1,6.5 3.2,6.1 5.4,-12.3 0.6,-5.5 1.5,-11.9 2,-14.2 0.5,-2.4 1.3,-7.1 1.9,-10.5 0.5,-3.5 1.8,-11.3 3,-17.3 1.8,-9.5 1.9,-12 0.9,-18.5 -1.3,-9 -2.6,-11.9 -11.7,-27.3 -3.9,-6.5 -7.4,-13.2 -7.7,-14.8 -1.5,-6.6 -2.5,-3.5 -2.7,8.3 z"
         id="path139"
         style="fill:#000000;stroke:none;stroke-width:0.1" />
    </g>
  </g>
  <g
     id="g162"
     inkscape:label="foot"
     transform="translate(-420.00001,-88.289986)">
    <path
       d="m 891.5,1332.8 c -1.6,0.1 -4.6,0.7 -6.6,1.2 -3.3,0.9 -4,1.7 -6.4,7.8 -3.6,9 -4.2,16.1 -2.1,26.9 1.6,8.2 1.6,9.5 0.1,18.1 -0.8,5.1 -2,10.4 -2.5,11.8 -0.6,1.4 -1,5 -1,8.1 0,7.2 2.6,11.4 9.6,15.9 5,3.2 5.4,3.8 5.4,7.2 0,5.5 4.1,10.7 10.5,13.3 1.7,0.7 4.1,2.1 5.4,3.1 3.3,2.5 18.1,2.6 20.6,0.2 1.4,-1.5 2.3,-1.5 7,-0.4 2.9,0.7 6.6,1 8.1,0.6 1.6,-0.4 5.4,-1.1 8.4,-1.5 5.5,-0.7 7,-1.1 18.5,-4.8 7.7,-2.5 9.5,-5.1 7.6,-11.3 -1,-3.4 -3.9,-6.8 -14.7,-17.3 -16.9,-16.4 -26.4,-30.1 -26.4,-38.1 0,-1.9 0.5,-5.6 1.1,-8.3 1,-4.2 0.8,-6 -1,-12.8 -1.2,-4.4 -2.7,-8.5 -3.3,-9.2 -4,-4.8 -27.9,-11.4 -38.3,-10.5 z"
       id="path140"
       style="fill:#000000;stroke:none;stroke-width:0.1" />
    <path
       d="m 686.1,1335 c -4.1,1 -10.4,3.4 -14,5.2 -5.7,2.8 -6.8,3.9 -8,7.3 -1.4,3.8 -1.8,14.3 -1.1,25.2 0.7,9.4 -7.4,21.9 -25.5,39.9 -8.3,8.2 -11.7,12.3 -13,15.7 -2.3,6.1 -1.4,9.3 3,11.1 5,2.1 15.2,4.8 21.5,5.6 3,0.4 7.2,1.1 9.2,1.5 2.3,0.5 5.6,0.3 8.2,-0.5 3.8,-1 4.8,-1 6.7,0.4 1.7,1.1 4.6,1.6 10.1,1.6 6.7,0 8.5,-0.4 13.5,-3.1 8.1,-4.2 12.3,-8.9 12.3,-13.6 0.1,-4.5 1.1,-5.9 6.7,-9.6 7.6,-4.8 9.9,-12.7 6.9,-23.3 -4,-14.2 -4.3,-21.2 -1.6,-36.5 0.9,-5.6 0.9,-7.2 -0.5,-11 -0.9,-2.4 -2.3,-6.4 -3.2,-8.9 -2.6,-7.7 -4,-8.5 -14.6,-8.7 -6.4,-0.2 -11.4,0.3 -16.6,1.7 z"
       id="path141"
       style="fill:#000000;stroke:none;stroke-width:0.1" />
  </g>
</svg>
