<?xml version="1.0" encoding="UTF-8" standalone="no"?>
<svg
   version="1.1"
   width="361.38983"
   height="208.8558"
   id="svg39"
   sodipodi:docname="ChatGPT Image 30 أبريل 2026، 12_45_34 ص.svg"
   xml:space="preserve"
   xmlns:inkscape="http://www.inkscape.org/namespaces/inkscape"
   xmlns:sodipodi="http://sodipodi.sourceforge.net/DTD/sodipodi-0.dtd"
   xmlns="http://www.w3.org/2000/svg"
   xmlns:svg="http://www.w3.org/2000/svg" style="fill: #f1f1f1"><defs
     id="defs39" /><sodipodi:namedview
     id="namedview39"
     pagecolor="#ffffff"
     bordercolor="#ffffff"
     borderopacity="0.25"
     inkscape:showpageshadow="2"
     inkscape:pageopacity="0.0"
     inkscape:pagecheckerboard="0"
     inkscape:deskcolor="#ffffff" /><g
     id="g50"
     transform="translate(-511.27423,-550.4962)"><path
       d="m 714.2168,696.42383 c -0.63102,0.0142 -1.2585,0.1158 -1.85743,0.29687 -0.79856,0.24143 -1.54801,0.62605 -2.19335,1.13477 -0.64535,0.50872 -1.18633,1.14192 -1.56836,1.88476 -0.27061,0.52 -0.45656,1.05598 -0.56641,1.59571 -0.10985,0.53972 -0.14291,1.08389 -0.10742,1.61914 0.0355,0.53525 0.13929,1.0618 0.30469,1.56836 0.1654,0.50656 0.39198,0.9936 0.67187,1.44726 0.27989,0.45367 0.61322,0.87344 0.99219,1.25 0.37897,0.37657 0.803,0.70913 1.26562,0.98438 0.46262,0.27525 0.96329,0.4948 1.49414,0.64453 0.53086,0.14973 1.09212,0.23047 1.67578,0.23047 0.82244,0 1.57806,-0.14158 2.25782,-0.39453 0.67975,-0.25295 1.28432,-0.61775 1.80664,-1.06446 0.52231,-0.4467 0.96238,-0.97538 1.3125,-1.55664 0.35011,-0.58126 0.61027,-1.21447 0.77344,-1.87109 0.16316,-0.65662 0.22995,-1.33698 0.1914,-2.00977 -0.0386,-0.67279 -0.18248,-1.33898 -0.4375,-1.96875 -0.25502,-0.62976 -0.62117,-1.22246 -1.10742,-1.75 -0.48625,-0.52753 -1.09198,-0.98935 -1.82422,-1.35547 -0.77468,-0.39264 -1.61145,-0.61089 -2.45312,-0.66992 -0.21042,-0.0147 -0.42052,-0.0204 -0.63086,-0.0156 z m 116.13476,0.0547 c -0.44405,0.0139 -0.89367,0.0699 -1.33789,0.16992 -0.59229,0.13331 -1.17668,0.34433 -1.72851,0.63086 -0.76939,0.40326 -1.39914,0.89635 -1.90039,1.45117 -0.50126,0.55482 -0.87363,1.17039 -1.125,1.8164 -0.25138,0.64602 -0.38262,1.32315 -0.40235,2 -0.0197,0.67686 0.0719,1.35462 0.26563,2.00196 0.19367,0.64734 0.49007,1.26479 0.8789,1.82226 0.38884,0.55747 0.86979,1.0537 1.43555,1.46094 0.56576,0.40724 1.21501,0.72522 1.93945,0.92188 0.72445,0.19665 1.52378,0.2735 2.38867,0.19921 0.88082,-0.0743 1.69307,-0.28754 2.41602,-0.61718 0.72295,-0.32964 1.35751,-0.77644 1.88281,-1.32032 0.52531,-0.54387 0.94066,-1.18535 1.22852,-1.90234 0.28785,-0.71698 0.44837,-1.5104 0.45898,-2.35937 0.0106,-0.56245 -0.0333,-1.07711 -0.13476,-1.55664 -0.10148,-0.47954 -0.26082,-0.92387 -0.48633,-1.34571 -0.45102,-0.84367 -1.16287,-1.59725 -2.18164,-2.36133 -0.4351,-0.31836 -0.93092,-0.56133 -1.46485,-0.73046 -0.53392,-0.16914 -1.10508,-0.26268 -1.6914,-0.28125 -0.14658,-0.005 -0.29339,-0.005 -0.44141,0 z m -313.41015,1.56445 c -3.01382,0 -5.51862,0.12708 -5.60352,0.29687 -0.0849,0.21224 -0.0849,13.75371 0,30.13868 l 0.12695,29.84179 h 5.05078 5.09375 l 0.043,-20.92773 c 0.0425,-11.46099 0.0425,-21.01237 0,-21.22461 -0.0424,-0.25469 0.13793,-0.33877 0.35547,-0.29102 0.21755,0.0478 0.47201,0.228 0.57813,0.50391 0.16979,0.50938 18.72122,26.91315 19.40039,27.63476 0.14857,0.1698 1.35835,-1.29617 3.7832,-4.62304 2.42485,-3.32687 6.06535,-8.51508 11.07422,-15.79492 2.92892,-4.24481 5.43229,-7.68412 5.64453,-7.72657 0.16979,0 0.29688,9.55139 0.29688,21.22461 v 21.22461 h 5.30664 5.30664 v -30.13867 -30.13867 h -5.64649 -5.64453 l -4.20312,6.02734 c -2.2922,3.3534 -6.62291,9.63566 -9.63672,14.00781 -3.01382,4.37216 -5.60221,8.02305 -5.81446,8.1504 -0.16979,0.12734 -2.88761,-3.43801 -5.98632,-7.9375 -3.09871,-4.4995 -7.55598,-10.86731 -9.89063,-14.22071 l -4.20117,-6.02734 z m 262.75781,0 v 30.13867 30.13867 h 5.30664 5.30664 v -12.31054 -12.31055 l 11.80078,-0.084 11.75781,-0.12695 0.12696,-2.97266 c 0.0849,-1.65549 3.9e-4,-3.7781 -0.12696,-4.79687 l -0.2539,-1.78125 H 801.94336 790.3125 v -7.85352 -7.85351 l 13.28711,-0.084 13.24414,-0.1289 0.12695,-5.00781 0.12696,-4.9668 h -18.72071 z m -129.46875,4.66992 -1.14649,0.041 c -0.67917,0.0424 -3.01339,0.29804 -5.2207,0.55273 l -4.0332,0.4668 -0.12696,5.60351 -0.12695,5.64649 h -3.82031 -3.82031 l 0.12695,4.54101 0.12695,4.58399 3.69336,0.12695 3.65039,0.12891 0.16992,11.75781 c 0.0849,5.47581 0.14831,8.45871 0.29688,10.34766 0.14857,1.88894 0.38216,2.68345 0.80664,3.7871 0.55183,1.39018 1.24375,2.61466 2.07813,3.67188 0.83437,1.05722 1.81207,1.94886 2.93164,2.67578 1.11957,0.72693 2.38164,1.28822 3.78906,1.6875 1.40742,0.39928 2.96027,0.63665 4.6582,0.71094 2.24976,0.0849 4.75351,-0.0857 6.1543,-0.38281 l 2.33594,-0.55274 0.12695,-4.83789 0.12695,-4.83984 -0.97656,0.29687 c -1.08243,0.30775 -2.07495,0.53197 -2.99023,0.66992 -0.91529,0.13796 -1.75267,0.19004 -2.52735,0.15821 -0.77468,-0.0318 -1.48588,-0.14798 -2.14648,-0.34961 -0.6606,-0.20163 -1.2707,-0.48796 -1.84375,-0.85938 -0.51999,-0.33958 -0.92394,-0.6804 -1.23633,-1.17187 -0.31239,-0.49147 -0.53293,-1.13491 -0.68945,-2.08203 -0.31306,-1.89425 -0.36719,-5.00349 -0.36719,-10.54297 v -10.1875 h 6.36719 6.36718 v -4.66992 -4.66797 h -6.36718 -6.36719 v -6.15625 z m 210.12305,0 -1.14649,0.041 c -1.44326,0.0849 -6.1967,0.67994 -8.06445,1.01953 l -1.40235,0.2539 v 5.47657 5.51953 h -3.60742 -3.60742 v 4.66797 4.66992 h 3.60742 3.60742 v 10.31445 c 0,5.68815 0.21211,11.46195 0.4668,12.82031 0.23347,1.25224 0.56048,2.39043 0.98828,3.42578 0.42781,1.03536 0.95632,1.96758 1.59571,2.8086 0.63938,0.84102 1.3896,1.59053 2.25781,2.25976 0.86821,0.66924 1.85447,1.2593 2.96875,1.7793 1.16734,0.55184 1.89949,0.84863 2.90234,1.00781 1.00286,0.15919 2.27756,0.17969 4.52735,0.17969 2.75917,-0.0425 5.39113,-0.25364 6.07031,-0.55078 l 1.14648,-0.50977 v -4.66992 c 0,-2.14366 -0.0222,-3.32199 -0.12304,-3.9375 -0.0504,-0.30775 -0.12125,-0.47384 -0.21875,-0.55078 -0.0975,-0.0769 -0.22168,-0.0648 -0.38086,-0.0117 -1.08245,0.32898 -2.08518,0.57073 -3.00977,0.72461 -0.92459,0.15388 -1.77163,0.22045 -2.54102,0.19922 -0.76938,-0.0212 -1.46129,-0.12985 -2.07812,-0.32617 -0.61683,-0.19633 -1.15806,-0.48014 -1.625,-0.85156 -0.55184,-0.4351 -0.97258,-0.80422 -1.29492,-1.28907 -0.32235,-0.48484 -0.54534,-1.08499 -0.69922,-1.98437 -0.30775,-1.79877 -0.33984,-4.7918 -0.33984,-10.4375 v -10.40039 h 6.15429 6.15625 v -4.66992 -4.66797 h -6.15625 -6.15429 v -6.15625 z m -110.56836,11.46875 c -2.0236,0.0418 -4.03023,0.32836 -5.95899,0.8457 -1.92875,0.51735 -3.77969,1.26488 -5.49023,2.22461 -0.85527,0.47987 -1.67554,1.01341 -2.45313,1.59766 -0.77758,0.58425 -1.51278,1.21981 -2.19726,1.9043 -0.7853,0.78529 -1.47003,1.54385 -2.07227,2.30859 -0.60224,0.76474 -1.1218,1.53458 -1.57812,2.34375 -0.45633,0.80917 -0.84972,1.65756 -1.19727,2.57617 -0.34755,0.91861 -0.64987,1.90695 -0.92578,3 -0.53061,2.07998 -0.79492,3.88539 -0.79492,5.68945 0,1.80407 0.26431,3.60753 0.79492,5.6875 0.27591,1.10367 0.58144,2.10336 0.93164,3.03125 0.3502,0.9279 0.74485,1.78513 1.20117,2.59961 0.45632,0.81449 0.97408,1.5862 1.56836,2.34961 0.59428,0.76341 1.26522,1.51829 2.0293,2.29297 1.19917,1.21509 2.52723,2.26182 3.94726,3.14453 1.42004,0.88272 2.93206,1.60015 4.5,2.1543 1.56795,0.55415 3.1911,0.94638 4.83399,1.17578 1.64289,0.22941 3.30629,0.29661 4.95117,0.20508 1.64488,-0.0915 3.27179,-0.3433 4.8457,-0.75195 1.57391,-0.40865 3.09541,-0.97336 4.52539,-1.69532 1.42999,-0.72195 2.76933,-1.59941 3.98243,-2.63086 1.21309,-1.03144 2.2994,-2.21755 3.22265,-3.55468 0.37143,-0.53061 0.65958,-0.91203 0.79688,-1.23438 0.13729,-0.32234 0.12284,-0.58512 -0.11328,-0.87695 -0.23612,-0.29183 -0.69259,-0.61366 -1.44141,-1.05274 -0.74882,-0.43907 -1.78865,-0.99569 -3.18945,-1.75976 l -3.56641,-1.95313 -0.63672,0.89063 c -0.56244,0.81713 -1.19288,1.53105 -1.89062,2.14258 -0.69775,0.61152 -1.46327,1.12073 -2.29102,1.52929 -0.82775,0.40857 -1.71944,0.71752 -2.67187,0.92579 -0.95244,0.20826 -1.96529,0.31751 -3.03711,0.32812 -1.32652,0 -2.58134,-0.16218 -3.75,-0.47656 -1.16866,-0.31439 -2.2508,-0.78238 -3.23243,-1.39258 -0.98162,-0.6102 -1.8635,-1.36256 -2.6289,-2.25 -0.7654,-0.88744 -1.41555,-1.90858 -1.93555,-3.05469 -0.38204,-0.87019 -0.62627,-1.59214 -0.76953,-2.45703 -0.14326,-0.86489 -0.18529,-1.87316 -0.16406,-3.31641 0,-1.54937 0.0436,-2.53745 0.21875,-3.40234 0.1751,-0.86489 0.48306,-1.60675 1.01367,-2.66797 0.50938,-1.03999 1.09699,-1.95103 1.76953,-2.73633 0.67254,-0.78529 1.42977,-1.44511 2.27344,-1.98632 0.84366,-0.54122 1.77413,-0.96374 2.79687,-1.27149 1.02275,-0.30775 2.13788,-0.50104 3.34766,-0.58594 1.00815,-0.0637 1.95484,-0.0373 2.85156,0.082 0.89673,0.11938 1.74231,0.33287 2.54883,0.64062 0.80652,0.30775 1.573,0.70952 2.31055,1.21094 0.73754,0.50142 1.44693,1.10233 2.13672,1.80273 l 2.0371,2.03711 3.90625,-2.20703 c 2.16488,-1.23101 4.03138,-2.33554 4.20118,-2.46289 0.11673,-0.12735 0.0271,-0.45151 -0.20899,-0.89258 -0.23612,-0.44106 -0.619,-0.99877 -1.08594,-1.5957 -0.93386,-1.19387 -2.20714,-2.54192 -3.33203,-3.41211 -1.42202,-1.12489 -2.82153,-2.03674 -4.27539,-2.76367 -1.45386,-0.72693 -2.96143,-1.26836 -4.5957,-1.65039 -0.99754,-0.23347 -2.00715,-0.40165 -3.01953,-0.50586 -1.01238,-0.10422 -2.02726,-0.14394 -3.03906,-0.12305 z m -144.3711,0.006 c -0.58398,-0.011 -1.16341,-7.2e-4 -1.73828,0.0293 -1.14975,0.06 -2.27895,0.20063 -3.38086,0.41992 -1.10191,0.21929 -2.17619,0.51788 -3.21484,0.89062 -1.03865,0.37275 -2.04198,0.81944 -3.00196,1.33985 -0.95997,0.5204 -1.87826,1.11313 -2.74414,1.77539 -0.86587,0.66225 -1.68114,1.39505 -2.4375,2.19336 -0.75635,0.7983 -1.45256,1.66324 -2.08398,2.59179 -0.67917,0.99753 -1.25285,1.93735 -1.73438,2.86524 -0.48152,0.92789 -0.87249,1.84444 -1.18554,2.79687 -0.31306,0.95243 -0.54889,1.94057 -0.72266,3.01172 -0.17377,1.07115 -0.28398,2.22376 -0.34765,3.50781 -0.0849,1.81466 -0.0317,3.50084 0.16992,5.08204 0.20163,1.58119 0.55117,3.05819 1.06054,4.45898 0.50938,1.40079 1.17728,2.7246 2.01563,3.99805 0.83835,1.27344 1.84661,2.49615 3.03516,3.69531 1.12487,1.13549 2.29307,2.10987 3.52539,2.93164 1.23232,0.82177 2.52919,1.49158 3.91406,2.01953 1.38487,0.52795 2.85693,0.91395 4.43945,1.16797 1.58252,0.25403 3.2763,0.37695 5.10156,0.37695 1.80405,-0.0106 3.44785,-0.13343 4.97266,-0.38281 1.52482,-0.24938 2.93006,-0.62649 4.25391,-1.14648 1.32385,-0.51999 2.56643,-1.18343 3.76757,-2.00586 1.20115,-0.82243 2.36087,-1.80423 3.51758,-2.96094 l 2.67578,-2.67383 -3.86328,-2.58984 -3.90625,-2.54688 -1.14648,1.0625 c -0.97631,0.89672 -2.03387,1.63974 -3.14258,2.23633 -1.10871,0.5966 -2.26837,1.04639 -3.44531,1.35547 -1.17694,0.30908 -2.37173,0.47756 -3.55274,0.51172 -1.181,0.0342 -2.34785,-0.0668 -3.46875,-0.29492 -1.12089,-0.22816 -2.19478,-0.58463 -3.1914,-1.0625 -0.99662,-0.47788 -1.91644,-1.07603 -2.72461,-1.79102 -0.80817,-0.71498 -1.50499,-1.54683 -2.06055,-2.48633 -0.55555,-0.93949 -0.97021,-1.98726 -1.20898,-3.13867 l -0.29688,-1.35742 h 16.55469 16.55664 l 0.29687,-1.65625 c 0.14857,-0.93386 0.0733,-2.65348 -0.16015,-4.53711 -0.23347,-1.88363 -0.62513,-3.93163 -1.11328,-5.52344 -0.36081,-1.25222 -1.18942,-2.89677 -2.18164,-4.47265 -0.99223,-1.57589 -2.14922,-3.08424 -3.16797,-4.06055 -1.18855,-1.10365 -2.7374,-2.17389 -4.37696,-3.05469 -1.63955,-0.8808 -3.36861,-1.57057 -4.91796,-1.91015 -1.19916,-0.27592 -2.39401,-0.46527 -3.57618,-0.57032 -0.59108,-0.0525 -1.17969,-0.0847 -1.76367,-0.0957 z m 91.14258,0.0332 c -0.6829,-0.007 -1.3715,0.0462 -2.05664,0.15625 -1.37028,0.2202 -2.72711,0.66601 -4.00586,1.30274 -1.27875,0.63672 -2.47933,1.46495 -3.53125,2.44922 -1.05192,0.98427 -1.9567,2.12583 -2.64648,3.38867 l -0.76368,1.35742 -0.12695,-3.94727 -0.12695,-3.90429 h -5.05274 -5.09375 v 21.64843 21.64844 h 5.30664 5.30664 v -11.58789 c 0,-3.21545 0.0165,-5.73632 0.0762,-7.75195 0.0597,-2.01563 0.16279,-3.52615 0.33789,-4.72266 0.1751,-1.19651 0.42136,-2.07979 0.76758,-2.83789 0.34621,-0.7581 0.79218,-1.3914 1.36523,-2.0918 0.76407,-0.84896 2.24934,-2.08059 3.31055,-2.75976 0.91263,-0.50938 1.50735,-0.7959 2.3457,-0.95508 0.83835,-0.15918 1.9216,-0.1914 3.81055,-0.19141 h 4.11718 v -5.34765 -5.39063 l -1.3164,-0.25586 c -0.66326,-0.13265 -1.34054,-0.19997 -2.02344,-0.20703 z m 12.67773,0.80274 v 21.64843 21.64844 h 5.09375 5.09375 v -21.64844 -21.64843 h -5.09375 z m 115.88672,0 v 21.64843 21.64844 h 5.09375 5.09375 v -21.64844 -21.64843 h -5.09375 z m -219.88672,8.10742 c 1.34773,-0.0212 2.62101,0.16057 3.79297,0.52734 1.17197,0.36678 2.24373,0.9172 3.18555,1.63086 0.94182,0.71366 1.75483,1.59191 2.41211,2.61133 0.65728,1.01942 1.1582,2.18079 1.47656,3.46484 l 0.25391,1.06055 h -11.54492 -11.50391 l 0.29688,-0.97461 c 0.28652,-0.95508 0.6881,-1.86153 1.18554,-2.69922 0.49744,-0.83768 1.09176,-1.60779 1.76563,-2.29492 0.67386,-0.68713 1.42639,-1.29151 2.24218,-1.79492 0.8158,-0.50341 1.69395,-0.90488 2.61719,-1.19141 0.59428,-0.16979 2.29218,-0.33984 3.82031,-0.33984 z"
       style="stroke-width:10;stroke-linecap:round;stroke-miterlimit:4.1;paint-order:stroke markers fill"
       id="path45" /><path
       d="m 804.95703,605.41992 c -0.70041,0.14857 -1.3689,0.4884 -1.94726,0.97656 -0.57837,0.48817 -1.06666,1.12434 -1.40625,1.86719 -0.23347,0.48816 -0.41437,2.13025 -0.53907,4.35352 -0.12469,2.22326 -0.19251,5.0276 -0.20312,7.83984 -0.0106,2.81224 0.0358,5.63162 0.14453,7.88672 0.10877,2.2551 0.2802,3.94621 0.51367,4.49805 0.27592,0.65796 0.56519,1.18746 0.91406,1.61328 0.34888,0.42581 0.75679,0.74755 1.27149,0.98633 0.51469,0.23877 1.13483,0.39535 1.9082,0.49218 0.77337,0.0968 1.69932,0.13477 2.82422,0.13477 1.13551,0 2.08483,-0.0362 2.88672,-0.11914 0.80189,-0.0829 1.45612,-0.21258 2,-0.40625 0.54388,-0.19367 0.97836,-0.45091 1.33984,-0.7832 0.36148,-0.3323 0.65156,-0.74146 0.90625,-1.24024 0.2547,-0.50939 0.4123,-1.32531 0.50781,-3.20898 0.0955,-1.88367 0.12891,-4.83387 0.12891,-9.60938 0,-5.36979 -0.0219,-8.28834 -0.13867,-10.02344 -0.0584,-0.86755 -0.14045,-1.4386 -0.25586,-1.87304 -0.11541,-0.43444 -0.26406,-0.73242 -0.45508,-1.05078 -0.42449,-0.72164 -1.14582,-1.52799 -1.57031,-1.74024 -0.40327,-0.21224 -2.26193,-0.42539 -4.19336,-0.55273 -1.93143,-0.12735 -3.93631,-0.16836 -4.63672,-0.041 z"
       style="stroke-width:10;stroke-linecap:round;stroke-miterlimit:4.1;paint-order:stroke markers fill"
       id="path46" /><path
       d="m 782.70312,585.56836 c -1.10367,-0.008 -2.21036,0.0366 -3.16015,0.13281 -0.9498,0.0962 -1.74315,0.24368 -2.2207,0.44531 -0.72164,0.3396 -1.78215,1.23202 -2.33399,1.9961 l -1.01953,1.44336 -0.12695,30.13867 -0.084,30.13867 0.9336,1.91016 c 0.3502,0.67918 0.70968,1.23202 1.13086,1.67773 0.42117,0.44572 0.90446,0.78437 1.49609,1.03906 0.59163,0.2547 1.29272,0.42513 2.1543,0.53125 0.86158,0.10613 1.88226,0.14844 3.11328,0.14844 1.14612,0 2.12762,-0.0432 2.97461,-0.13867 0.84699,-0.0955 1.56042,-0.24479 2.16797,-0.45703 0.60755,-0.21225 1.1093,-0.48769 1.5371,-0.83789 0.42781,-0.35021 0.78209,-0.77382 1.08985,-1.28321 0.19102,-0.31836 0.33584,-0.64721 0.44726,-1.41992 0.11143,-0.7727 0.18913,-1.98876 0.24219,-4.08203 0.10612,-4.18652 0.11719,-11.88077 0.11719,-26.54687 0,-15.02693 -10e-4,-22.71032 -0.10742,-26.80664 -0.0531,-2.04816 -0.13257,-3.19955 -0.25196,-3.92383 -0.11938,-0.72429 -0.27799,-1.02174 -0.49023,-1.36133 -0.23347,-0.38204 -0.61597,-0.80686 -1.03516,-1.18359 -0.41918,-0.37674 -0.87577,-0.70547 -1.25781,-0.89649 -0.45632,-0.21224 -1.23269,-0.37361 -2.17187,-0.48437 -0.93919,-0.11077 -2.04086,-0.17173 -3.14454,-0.17969 z"
       style="stroke-width:10;stroke-linecap:round;stroke-miterlimit:4.1;paint-order:stroke markers fill"
       id="path47" /><path
       d="m 644.92187,550.53906 c -1.06918,-0.0657 -2.08754,-0.0563 -3.0957,0.0312 -1.00816,0.0876 -2.00647,0.2526 -3.0332,0.5 -1.02673,0.2474 -2.08214,0.57636 -3.20703,0.99024 -1.75102,0.63673 -3.36906,1.42973 -4.85742,2.38086 -1.48837,0.95112 -2.84711,2.05996 -4.07813,3.32812 -1.23102,1.26816 -2.33547,2.69535 -3.31445,4.2832 -0.97898,1.58786 -1.83221,3.33785 -2.56446,5.24805 -0.22285,0.58367 -0.39023,1.03474 -0.51757,2.15234 -0.12735,1.11761 -0.21563,2.9004 -0.2793,6.1504 -0.12735,6.49999 -0.15898,18.86399 -0.22266,43.48437 -0.0424,17.27672 -0.0413,29.75592 0.0117,38.05469 0.0531,8.29877 0.15833,12.41691 0.32813,12.96875 0.21224,0.73755 0.52198,1.41327 0.91015,2.02148 0.38818,0.60822 0.85489,1.14955 1.38086,1.61914 0.52597,0.46959 1.11071,0.86777 1.73633,1.18946 0.62563,0.32168 1.29137,0.56598 1.97852,0.73046 0.68714,0.16449 1.3969,0.24809 2.10742,0.2461 0.71052,-0.002 1.42337,-0.0898 2.11914,-0.26758 0.69576,-0.17775 1.37471,-0.44579 2.01758,-0.80859 0.64287,-0.36281 1.24894,-0.81981 1.80078,-1.37696 0.42449,-0.42449 0.87076,-0.99835 1.24219,-1.58203 0.37142,-0.58367 0.66757,-1.17759 0.79492,-1.64453 0.16979,-0.59428 0.28704,-4.57425 0.36133,-12.5918 0.0743,-8.01754 0.10546,-20.07225 0.10546,-36.81836 0,-23.38936 10e-4,-35.33946 0.10743,-41.64843 0.0531,-3.15449 0.13256,-4.8978 0.25195,-5.95703 0.11939,-1.05924 0.27799,-1.43378 0.49023,-1.84766 0.42449,-0.8702 0.99918,-1.6133 1.67969,-2.21289 0.68051,-0.59959 1.46688,-1.05637 2.31055,-1.35352 0.84367,-0.29714 1.74618,-0.43362 2.66015,-0.39648 0.91398,0.0371 1.83905,0.24908 2.73047,0.65234 0.63674,0.29715 2.02811,1.4008 4.28321,3.42774 2.2551,2.02693 5.37438,4.97659 9.4707,8.96679 8.82938,8.57469 14.84655,14.36827 18.86328,18.125 4.01673,3.75674 6.03357,5.47591 6.86133,5.90039 0.44571,0.23347 1.12452,0.43652 1.96289,0.59571 0.83837,0.15918 1.83552,0.27617 2.91797,0.33984 1.45387,0.0743 2.52004,0.14702 3.62304,-0.0937 0.55151,-0.12038 1.11166,-0.31943 1.73438,-0.63672 0.62272,-0.31729 1.30752,-0.75274 2.10742,-1.3457 1.5998,-1.18592 3.66124,-3.00055 6.60547,-5.76172 2.94423,-2.76117 6.77188,-6.46902 11.9082,-11.43555 5.15755,-4.98775 9.81607,-9.40223 13.29688,-12.62304 3.48081,-3.22082 5.78475,-5.24674 6.23047,-5.45899 0.77469,-0.36081 1.60495,-0.57164 2.44531,-0.64062 0.84036,-0.069 1.68942,0.003 2.50391,0.20508 0.81449,0.20163 1.59392,0.53335 2.29101,0.98437 0.69709,0.45102 1.31262,1.02199 1.80078,1.70117 l 1.01953,1.44336 0.21094,49.24024 c 0.10612,23.11344 0.16953,35.44456 0.29688,42.16211 0.0637,3.35877 0.14513,5.31386 0.2539,6.51171 0.10878,1.19786 0.24538,1.63782 0.42578,1.9668 0.2547,0.45633 0.61576,0.92214 1.04688,1.36719 0.43112,0.44505 0.93283,0.87061 1.46875,1.25 0.53592,0.37939 1.1067,0.71137 1.67578,0.9707 0.56908,0.25934 1.1354,0.44635 1.66602,0.53125 1.01877,0.1698 2.07107,0.13527 3.08984,-0.0684 1.01877,-0.20362 2.00506,-0.57725 2.89648,-1.08398 0.89143,-0.50674 1.68749,-1.14718 2.32422,-1.88672 0.63674,-0.73954 1.11445,-1.57843 1.36914,-2.48047 0.1698,-0.59428 0.28705,-4.58398 0.36133,-12.63867 0.0743,-8.05469 0.10547,-20.17316 0.10547,-37.02539 0,-20.26937 -0.0314,-32.37814 -0.12695,-39.73242 -0.0955,-7.35428 -0.25507,-9.95479 -0.50977,-11.20703 -0.2149,-1.02674 -0.49005,-2.01911 -0.81836,-2.97657 -0.3283,-0.95745 -0.71017,-1.87941 -1.14258,-2.76367 -0.86481,-1.76851 -1.92891,-3.38762 -3.15429,-4.83984 -1.22538,-1.45222 -2.61155,-2.73722 -4.12305,-3.8418 -1.5115,-1.10458 -3.14793,-2.02829 -4.87109,-2.75391 -1.72316,-0.72561 -3.53416,-1.25501 -5.39453,-1.57031 -1.86038,-0.3153 -3.77023,-0.41737 -5.69336,-0.29101 -1.92314,0.12635 -3.85809,0.48268 -5.76954,1.08203 -0.95572,0.29967 -1.90686,0.66019 -2.8457,1.08398 -0.93884,0.4238 -1.86664,0.91106 -2.7793,1.46289 -1.10367,0.65796 -3.66096,2.86517 -8.0332,6.9668 -4.37224,4.10163 -10.55943,10.09694 -18.92187,18.33203 -4.16,4.03265 -7.72578,7.3017 -7.98047,7.2168 -0.21225,-0.0425 -6.91804,-6.45346 -14.89844,-14.13672 -7.9804,-7.72571 -15.57861,-14.94125 -16.89453,-16.04492 -0.81714,-0.70041 -1.70096,-1.35678 -2.63086,-1.95703 -0.9299,-0.60026 -1.9073,-1.1448 -2.91016,-1.625 -1.00285,-0.48021 -2.03234,-0.89608 -3.06836,-1.23633 -1.03602,-0.34026 -2.07803,-0.60475 -3.10742,-0.78516 -1.20979,-0.21224 -2.32925,-0.3523 -3.39844,-0.41797 z"
       style="stroke-width:10;stroke-linecap:round;stroke-miterlimit:4.1;paint-order:stroke markers fill"
       id="path48" /><path
       d="m 569.91797,605.50391 -1.44336,1.44336 -1.44336,1.44335 v 12.39454 12.39648 l 1.48437,1.48438 1.48633,1.48632 4.71289,-0.16992 4.71094,-0.12695 1.23047,-1.40039 1.23242,-1.35938 v -12.35156 -12.35352 l -1.44336,-1.44335 -1.44336,-1.44336 h -4.54297 z"
       style="stroke-width:10;stroke-linecap:round;stroke-miterlimit:4.1;paint-order:stroke markers fill"
       id="path49" /><path
       d="m 600.69336,585.55273 c -1.05061,0 -1.95298,0.0419 -2.73828,0.13672 -0.78531,0.0949 -1.45344,0.24354 -2.03711,0.45313 -0.58367,0.20959 -1.08358,0.48194 -1.5293,0.82617 -0.44571,0.34423 -0.83755,0.75904 -1.20898,1.25781 -0.22286,0.29715 -0.39023,0.54679 -0.51758,1.22266 -0.12735,0.67587 -0.21562,1.77819 -0.2793,3.78125 -0.12734,4.00612 -0.15898,11.61539 -0.22265,26.62109 -0.0212,8.5004 -0.0466,14.76904 -0.0254,19.42383 0.0212,4.65479 0.09,7.69543 0.25976,9.73828 0.0849,1.02143 0.194,1.79478 0.33594,2.39453 0.14194,0.59976 0.3151,1.02708 0.52734,1.35938 0.42449,0.66459 1.00376,0.94875 1.78906,1.46875 0.67919,0.46694 1.13485,0.71084 1.97852,0.82226 0.84367,0.11143 2.07612,0.0891 4.30469,0.0254 l 4.79687,-0.12695 1.69727,-1.7832 1.65625,-1.82422 -0.0859,-31.1582 -0.12695,-31.15821 -1.06055,-1.14453 c -0.59428,-0.63673 -1.65584,-1.44504 -2.41992,-1.74219 -0.40327,-0.16979 -1.12475,-0.3177 -2.02149,-0.42382 -0.89673,-0.10613 -1.96859,-0.16993 -3.07226,-0.16993 z"
       style="stroke-width:10;stroke-linecap:round;stroke-miterlimit:4.1;paint-order:stroke markers fill"
       id="path50" /></g></svg>
